<?xml version="1.0" encoding="UTF-8"?>
<!DOCTYPE svg PUBLIC "-//W3C//DTD SVG 1.1//EN" "http://www.w3.org/Graphics/SVG/1.1/DTD/svg11.dtd">
<!-- Creator: CorelDRAW X7 -->
<svg xmlns="http://www.w3.org/2000/svg" xml:space="preserve" width="1600px" height="900px" version="1.1" style="shape-rendering:geometricPrecision; text-rendering:geometricPrecision; image-rendering:optimizeQuality; fill-rule:evenodd; clip-rule:evenodd"
viewBox="0 0 1600 900"
 xmlns:xlink="http://www.w3.org/1999/xlink">
 <defs>
  <style type="text/css">
   <![CDATA[
    .str0 {stroke:black;stroke-width:2.36221;stroke-linecap:square}
    .fil0 {fill:none}
   ]]>
  </style>
 </defs>
 <g id="Capa_x0020_1">
  <metadata id="CorelCorpID_0Corel-Layer"/>
  <g id="_2302864447872">
   <path class="fil0 str0" d="M231 561c-4,5 -6,9 -1,14 6,-7 1,-12 15,-12 5,6 6,5 6,13l-5 5c-4,2 -7,-3 -7,13 -8,4 -3,0 -14,5 -12,7 -13,12 -21,15 -4,0 -5,0 -9,3 -6,0 -8,3 -15,3 -4,3 -6,3 -10,6 -8,2 -25,4 -29,12 -5,7 0,15 9,15 20,0 184,2 189,0 4,-2 11,-12 0,-20l-5 -1c-5,-1 0,0 -4,-3 -5,0 -14,-3 -18,-6 -5,0 -6,0 -9,-3 -6,-1 -26,-7 -30,-9l-6 -6c-6,-4 -10,-5 -15,-9 -5,0 -5,0 -9,-3l0 -5c8,-4 19,-10 11,-24 -5,-7 -14,-7 -23,-3z"/>
   <path class="fil0 str0" d="M1137 561c-5,5 -7,9 -2,14 6,-7 1,-12 15,-12 5,6 6,5 6,13l-5 5c-4,2 -7,-3 -7,13 -8,4 -3,0 -13,5 -13,7 -14,12 -21,15 -5,0 -6,0 -9,3 -7,0 -9,3 -15,3 -5,3 -7,3 -11,6 -8,2 -25,4 -29,12 -5,7 0,15 10,15 19,0 183,2 188,0 4,-2 11,-12 0,-20l-5 -1c-5,-1 0,0 -4,-3 -5,0 -14,-3 -18,-6 -5,0 -6,0 -9,-3 -6,-1 -26,-7 -30,-9l-5 -6c-7,-4 -11,-5 -16,-9 -5,0 -5,0 -8,-3l0 -5c7,-4 18,-10 10,-24 -5,-7 -14,-7 -22,-3z"/>
   <path class="fil0 str0" d="M652 208c-5,4 -12,10 -4,15 5,-5 0,-6 7,-10 6,-5 14,3 14,9 -2,4 -2,4 -5,8 -4,1 -8,-3 -8,13 -4,1 -8,3 -12,4 -6,4 -11,7 -17,13 -4,1 -5,1 -8,2l-20 8c-5,0 -6,0 -9,3 -5,0 -6,0 -9,3 -8,2 -24,4 -24,15 0,7 5,11 12,11l181 0c12,0 17,-13 7,-20l-19 -6c-4,-3 -5,-3 -9,-3 -7,-4 -14,-5 -20,-8 -4,-1 -13,-4 -17,-5l-5 -5c-4,-3 -9,-6 -12,-8 -5,-1 -9,-3 -13,-4l0 -7c3,-2 5,-2 8,-4 6,-7 6,-25 -12,-25 -5,0 -3,1 -6,1z"/>
   <path class="fil0 str0" d="M260 186c-4,3 -5,4 -8,7 -1,4 -2,9 2,12 6,-5 -1,-8 7,-12 4,-3 12,-1 14,5l0 7c-5,4 -6,3 -9,7 0,8 1,3 1,11 -21,11 -20,16 -27,22 -19,11 -40,21 -58,34 -6,5 -4,18 4,18 14,0 12,-2 21,-3l3 0c5,-2 9,-2 12,-3l17 -3c3,-1 11,-2 15,-3l31 -6c4,-1 12,-2 15,-3l48 -9c8,-2 27,-4 32,-10 4,-7 -3,-15 -9,-16l-15 -1c-4,-2 -5,-1 -8,-2l-15 -1c-3,-2 -4,-1 -7,-2 -2,-1 -18,-1 -23,-3 -2,-2 -9,-8 -18,-9 -4,-1 -4,1 -12,-2 -2,-4 -1,-2 -1,-6 7,-7 13,-14 4,-24 -2,-3 -7,-5 -9,-6 -4,2 -3,1 -7,1z"/>
   <path class="fil0 str0" d="M1165 186c-4,3 -5,4 -7,7 -2,4 -3,9 1,12 6,-5 -1,-8 7,-12 4,-3 12,-1 14,5l0 7c-5,4 -6,3 -9,7 0,8 1,3 1,11 -21,11 -20,16 -26,22 -20,11 -41,21 -59,34 -6,5 -4,18 5,18 13,0 11,-2 20,-3l4 0c4,-2 8,-2 12,-3l16 -3c3,-1 11,-2 15,-3l32 -6c3,-1 11,-2 15,-3l47 -9c8,-2 27,-4 32,-10 4,-7 -3,-15 -9,-16l-15 -1c-4,-2 -5,-1 -8,-2l-14 -1c-4,-2 -5,-1 -8,-2 -2,-1 -18,-1 -22,-3 -3,-2 -10,-8 -19,-9 -4,-1 -4,1 -12,-2 -2,-4 -1,-2 -1,-6 7,-7 13,-14 5,-24 -3,-3 -8,-5 -10,-6 -4,2 -3,1 -7,1z"/>
   <path class="fil0 str0" d="M609 599c-7,6 -10,9 -4,16 9,-6 -6,-6 12,-13 2,1 5,1 8,4 1,3 1,9 -1,11 -3,2 -4,3 -6,3 -2,6 -1,7 0,12 -6,5 -15,9 -19,15 -2,2 -4,5 -6,7 -7,6 -58,30 -63,37 -3,5 -1,19 13,16l87 -17c4,0 5,0 9,-2l32 -6c4,0 10,-1 15,-3l40 -8 6 -6c0,-3 0,-8 -5,-12 -4,-2 -33,-5 -38,-6 -5,-1 -6,0 -10,0 -3,-1 -5,-2 -7,-3 -5,0 -14,0 -17,-2 -4,-1 -9,-7 -23,-10 -5,0 -5,1 -8,0 -2,-4 -2,-4 -1,-8 3,-2 9,-4 9,-13 0,-6 -7,-15 -13,-15 -9,0 -5,0 -10,3z"/>
   <path class="fil0 str0" d="M625 267c-6,0 -15,4 -18,6 -5,0 -6,0 -9,3 -5,0 -3,-1 -6,2 4,7 3,-1 11,2 -7,9 -13,3 -16,0 -5,0 -13,2 -16,5 -5,0 -5,0 -8,4l0 5c2,1 3,3 6,3l181 0c4,0 5,-3 7,-5 -3,-8 -8,-7 -9,-7 -4,-3 -5,-3 -9,-3 -5,-3 -2,-2 -7,-2 -3,3 -3,5 -8,5 -5,0 -6,-3 -7,-5 7,-3 3,4 11,-1 -4,-3 -3,-3 -7,-3l-23 -9c-5,-1 -4,-1 -7,-2 -2,0 -9,4 -17,4 -7,0 -35,1 -42,-2 -6,-4 -3,-3 -7,0z"/>
   <path class="fil0 str0" d="M204 620c-4,0 -26,6 -30,10 5,6 3,-1 11,2 -6,9 -12,3 -15,0 -5,0 -7,0 -11,3 -10,3 -14,1 -15,10 3,2 6,3 9,3l177 0c4,0 7,-1 9,-4 -3,-8 -6,-6 -15,-9 -4,-3 -5,-3 -9,-3l-6 4c-8,0 -10,0 -9,-6 5,2 6,4 9,0 -2,-3 -8,-4 -12,-4 -4,-3 -13,-6 -18,-6 0,-1 -3,-4 -9,-3 -3,1 -4,3 -12,3 -8,0 -36,1 -42,0l-5 -4c-4,2 -4,2 -7,4z"/>
   <path class="fil0 str0" d="M1109 620c-4,0 -26,6 -29,10 4,6 2,-1 10,2 -6,9 -12,3 -15,0 -5,0 -7,0 -10,3 -11,3 -15,1 -15,10 2,2 5,3 9,3l176 0c4,0 7,-1 10,-4 -4,-8 -7,-6 -16,-9 -4,-3 -5,-3 -9,-3l-5 4c-9,0 -11,0 -9,-6 4,2 5,4 9,0 -3,-3 -9,-4 -13,-4 -4,-3 -13,-6 -17,-6 -1,-1 -4,-4 -9,-3 -4,1 -5,3 -13,3 -8,0 -36,1 -41,0l-6 -4c-4,2 -4,2 -7,4z"/>
   <path class="fil0 str0" d="M1209 238c-6,5 -18,7 -25,9l-15 3c-10,1 -20,-1 -20,0 -6,2 -31,15 -33,20 4,2 -1,1 5,1 4,-5 1,-4 6,-2 -7,11 -13,5 -16,3 -7,1 -14,6 -19,10 -4,4 -3,1 -3,7 4,3 4,3 14,2 4,-2 8,-2 12,-3l63 -12c3,-1 11,-2 15,-3l16 -3c3,-1 11,-2 15,-3l41 -8c7,-2 11,0 16,-7 -3,-5 -3,-5 -10,-6l-6 0c-3,-1 -7,-2 -10,-2 -3,3 -5,7 -9,7 -5,0 -6,-1 -7,-4 5,-2 6,2 10,-2 -4,-4 -1,-2 -11,-3l-17 -2c-6,-1 -3,-2 -12,-2z"/>
   <path class="fil0 str0" d="M303 238c-5,5 -17,7 -24,9l-15 3c-10,1 -20,-1 -21,0 -5,2 -30,15 -33,20 5,2 0,1 6,1 4,-5 1,-4 6,-2 -7,11 -13,5 -16,3 -7,1 -14,6 -20,10 -3,4 -2,1 -3,7 5,3 5,3 15,2 4,-2 8,-2 12,-3l63 -12c3,-1 11,-2 15,-3l15 -3c4,-1 12,-2 15,-3l42 -8c7,-2 11,0 15,-7 -2,-5 -2,-5 -9,-6l-6 0c-3,-1 -7,-2 -10,-2 -3,3 -5,7 -9,7 -5,0 -6,-1 -8,-4 6,-2 7,2 11,-2 -4,-4 -1,-2 -11,-3l-18 -2c-5,-1 -2,-2 -12,-2z"/>
   <path class="fil0 str0" d="M655 648c-7,5 -10,5 -16,8 -9,1 -33,6 -38,6 -4,-2 -4,-2 -8,-2 -7,5 -28,16 -31,19 3,5 4,1 10,-1 -1,8 -9,8 -10,7 -3,-1 -3,-1 -5,-4 -11,5 -19,9 -23,16 4,9 8,4 14,3l63 -12c4,0 10,-1 15,-3l4 0c3,-1 7,-1 12,-3l66 -11c3,-2 10,-3 14,-3 1,-2 2,-2 4,-3l0 -5c-7,-6 -14,-3 -21,-4 -3,-1 -2,-1 -5,-2 -5,8 -10,11 -15,3 6,-2 5,4 10,-3 -8,-3 -8,-1 -12,-1 -4,-2 -5,-1 -8,-3l-20 -2z"/>
   <path class="fil0 str0" d="M866 12c-5,0 -21,6 -25,8 0,3 0,1 1,4 6,-2 3,-4 9,-1 -4,5 -4,4 -11,4l-4 -4c-6,0 -20,3 -23,7 -3,3 -2,1 -2,6 1,1 2,1 4,3l187 0 4 -4c-4,-10 -12,-9 -20,-11 -4,-2 -2,-2 -5,-3 -2,2 -5,6 -7,6 -5,-1 -7,0 -8,-6 6,1 5,5 10,0 -3,-3 -4,-3 -8,-3 -4,-3 -5,-3 -9,-3 -3,-2 -17,-7 -19,-7 -5,0 -11,4 -17,4l-30 0c-13,0 -12,-9 -27,0z"/>
   <path class="fil0 str0" d="M1017 312c-5,2 -11,5 -14,10 -4,4 -7,9 -7,14 -3,15 1,30 15,39 25,16 58,-9 54,-34 -2,-9 -7,-18 -13,-23 -4,-3 -6,-4 -9,-6 -5,-1 -9,-2 -13,-2 -5,0 -9,1 -13,2z"/>
   <path class="fil0 str0" d="M111 312c-4,2 -10,5 -13,10 -4,4 -7,9 -8,14 -2,15 2,30 15,39 26,16 59,-9 54,-34 -1,-9 -6,-18 -12,-23 -4,-3 -6,-4 -9,-6 -5,-1 -9,-2 -13,-2 -5,0 -9,1 -14,2z"/>
   <path class="fil0 str0" d="M803 279c-9,2 -16,6 -20,14 -10,14 -7,36 7,47 6,5 16,9 26,8 9,-2 17,-6 24,-14 6,-9 9,-25 5,-35 -4,-9 -15,-19 -24,-20 -12,-2 -10,0 -18,0z"/>
   <path class="fil0 str0" d="M323 492c-3,3 -5,4 -8,6 -11,9 -14,32 -6,44 2,3 8,10 14,12 4,3 4,3 10,4 30,5 55,-30 33,-57 -9,-11 -20,-12 -33,-12 -4,0 -6,3 -10,3z"/>
   <path class="fil0 str0" d="M1228 492c-3,3 -5,4 -7,6 -12,9 -15,32 -7,44 2,3 8,10 14,12 4,3 4,3 11,4 29,5 54,-30 32,-57 -9,-11 -20,-12 -32,-12 -5,0 -7,3 -11,3z"/>
   <path class="fil0 str0" d="M536 557c-10,1 -19,8 -24,15 -5,8 -7,24 -3,33 1,2 8,11 10,13 7,6 18,10 27,8 8,-1 18,-6 24,-14 11,-13 8,-36 -5,-48 -7,-5 -14,-7 -22,-7 -4,0 -7,0 -7,0z"/>
   <path class="fil0 str0" d="M1441 557c-10,1 -19,8 -23,15 -6,8 -8,24 -3,33 0,2 7,11 10,13 6,6 17,10 26,8 8,-1 18,-6 24,-14 11,-13 8,-36 -5,-48 -7,-5 -14,-7 -22,-7 -4,0 -7,0 -7,0z"/>
   <path class="fil0 str0" d="M1437 332c-3,0 -2,0 -4,1 -9,4 -19,14 -20,25l0 4c-2,4 -2,1 0,6 0,4 0,9 5,16l10 11c5,3 14,6 20,6 14,0 31,-14 34,-29 2,-13 -3,-26 -13,-34 -14,-11 -27,-6 -32,-6z"/>
   <path class="fil0 str0" d="M531 332c-2,0 -1,0 -4,1 -8,4 -18,14 -20,25l0 4c-1,4 -1,1 0,6 1,4 1,9 5,16l10 11c6,3 15,6 21,6 14,0 31,-14 34,-29 2,-13 -3,-26 -13,-34 -14,-11 -27,-6 -33,-6z"/>
   <path class="fil0 str0" d="M988 557c-4,1 -5,1 -7,1l-8 5c-5,4 -11,13 -12,18l-1 13c0,7 1,8 4,14 2,5 11,13 14,15 5,2 14,4 20,3 20,-3 34,-22 32,-39 -2,-9 -6,-17 -14,-24 -12,-9 -24,-6 -28,-6z"/>
   <path class="fil0 str0" d="M83 557c-4,1 -5,1 -8,1l-7 5c-5,4 -11,13 -12,18l-2 13c1,7 2,8 5,14 2,5 11,13 13,15 6,2 15,4 21,3 20,-3 34,-22 32,-39 -2,-9 -6,-17 -14,-24 -12,-9 -24,-6 -28,-6z"/>
   <path class="fil0 str0" d="M746 492c-5,4 -10,7 -13,12 -6,9 -6,20 -4,29 0,3 0,2 1,4l6 9c14,18 40,16 54,-1 4,-5 9,-17 8,-24 -3,-16 -17,-32 -30,-32 -22,0 -11,1 -22,3z"/>
   <path class="fil0 str0" d="M594 779c-18,9 -19,20 -19,36 0,15 18,31 34,31 11,0 24,-8 31,-18l4 -15c1,-5 1,-2 0,-6l0 -4c-2,-10 -12,-22 -20,-25 -7,-4 -22,-3 -30,1z"/>
   <path class="fil0 str0" d="M1499 779c-18,9 -19,20 -19,36 0,15 18,31 34,31 11,0 24,-8 31,-18l4 -15c1,-5 1,-2 0,-6l0 -4c-2,-10 -12,-22 -20,-25 -7,-4 -22,-3 -30,1z"/>
   <path class="fil0 str0" d="M539 104c-17,0 -32,16 -32,30 0,13 1,22 14,33 5,3 14,7 21,7 10,0 24,-8 30,-16 6,-11 6,-28 0,-39 -4,-5 -14,-13 -22,-15l-5 0c-7,-2 -3,1 -6,0z"/>
   <path class="fil0 str0" d="M1444 104c-17,0 -31,16 -31,30 0,13 0,22 13,33 5,3 14,7 21,7 10,0 24,-8 30,-16 6,-11 6,-28 0,-39 -4,-5 -14,-13 -22,-15l-5 0c-7,-2 -3,1 -6,0z"/>
   <path class="fil0 str0" d="M393 787c-8,4 -15,8 -19,17 -4,6 -6,13 -5,20 3,15 16,31 30,31 11,0 17,0 26,-7 9,-8 16,-19 15,-31 -2,-11 -8,-22 -18,-27 -5,-3 -6,-4 -14,-4l-15 1z"/>
   <path class="fil0 str0" d="M1298 787c-8,4 -15,8 -19,17 -4,6 -6,13 -4,20 2,15 15,31 30,31 10,0 16,0 26,-7 8,-8 15,-19 14,-31 -2,-11 -8,-22 -18,-27 -5,-3 -6,-4 -13,-4l-16 1z"/>
   <path class="fil0 str0" d="M1213 104c-7,3 -17,5 -23,18 -6,12 -5,28 3,37l9 9c7,4 10,5 19,6 10,-3 10,-1 21,-7l10 -12c3,-7 5,-21 2,-30l-5 -8c-5,-5 -14,-11 -20,-13 -5,0 -13,0 -16,0z"/>
   <path class="fil0 str0" d="M308 104c-7,3 -17,5 -23,18 -6,12 -5,28 3,37l9 9c7,4 10,5 18,6 11,-3 11,-1 21,-7l11 -12c3,-7 5,-21 1,-30l-4 -8c-5,-5 -14,-11 -20,-13 -5,0 -13,0 -16,0z"/>
   <path class="fil0 str0" d="M192 671c-6,3 -12,5 -16,10 -4,6 -5,9 -8,13l0 10c0,12 5,21 14,29 5,4 16,8 24,7 3,-2 2,-1 7,-1 2,-1 13,-8 17,-12 2,-5 4,-8 7,-12l-1 -24 -5 -8c-4,-4 -13,-11 -18,-12l-9 -2c-5,0 -7,2 -12,2z"/>
   <path class="fil0 str0" d="M1097 671c-6,3 -12,5 -16,10 -4,6 -5,9 -7,13l-1 10c0,12 5,21 14,29 5,4 16,8 24,7 3,-2 2,-1 7,-1 2,-1 13,-8 17,-12 2,-5 4,-8 7,-12l-1 -24 -5 -8c-4,-4 -13,-11 -18,-12l-9 -2c-5,0 -7,2 -12,2z"/>
   <path class="fil0 str0" d="M1302 802c-11,8 -11,8 -11,22 0,9 19,25 34,8 6,-9 4,-21 -2,-26 -9,-8 -16,-4 -21,-4z"/>
   <path class="fil0 str0" d="M396 802c-10,8 -10,8 -10,22 0,9 19,25 33,8 7,-9 5,-21 -2,-26 -8,-8 -15,-4 -21,-4z"/>
   <path class="fil0 str0" d="M531 575c-5,5 -6,5 -7,10 -5,23 17,31 30,22 16,-13 3,-35 -8,-35 -12,0 -7,0 -15,3z"/>
   <path class="fil0 str0" d="M1437 575c-6,5 -7,5 -8,10 -5,23 17,31 30,22 16,-13 3,-35 -8,-35 -12,0 -7,0 -14,3z"/>
   <path class="fil0 str0" d="M753 507c-10,8 -9,10 -9,20 0,15 25,25 36,4 5,-11 -1,-27 -20,-27 -3,0 -4,2 -7,3z"/>
   <path class="fil0 str0" d="M116 328c-11,5 -11,10 -11,21 0,7 12,16 18,16 8,0 21,-9 21,-17 0,-7 0,-10 -4,-15 -7,-8 -16,-9 -24,-5z"/>
   <path class="fil0 str0" d="M1021 328c-11,5 -10,10 -10,21 0,7 11,16 18,16 7,0 20,-9 20,-17 0,-7 0,-10 -4,-15 -7,-8 -16,-9 -24,-5z"/>
   <path class="fil0 str0" d="M189 690c-6,9 -6,7 -6,17 0,8 11,16 14,17l10 0c5,-2 15,-10 15,-17 0,-4 0,-9 -3,-13 -2,-3 -8,-9 -12,-9 -12,0 -9,0 -18,5z"/>
   <path class="fil0 str0" d="M1094 690c-6,9 -5,7 -5,17 0,8 10,16 13,17l11 0c4,-2 14,-10 14,-17 0,-4 0,-9 -2,-13 -3,-3 -9,-9 -13,-9 -12,0 -9,0 -18,5z"/>
   <path class="fil0 str0" d="M802 296c-3,2 -7,5 -8,10 -2,6 -1,14 4,20 10,11 27,4 32,-5 3,-7 1,-17 -4,-22 -7,-7 -16,-6 -24,-3z"/>
   <path class="fil0 str0" d="M1440 120c-11,6 -15,14 -11,26 1,6 12,12 18,12l9 -3c21,-15 6,-36 -8,-36 -5,0 -5,1 -8,1z"/>
   <path class="fil0 str0" d="M534 120c-10,6 -14,14 -10,26 1,6 12,12 18,12l9 -3c21,-15 6,-36 -8,-36 -5,0 -5,1 -9,1z"/>
   <path class="fil0 str0" d="M1235 507c-10,9 -9,7 -9,20 0,8 14,25 31,12 7,-7 9,-18 3,-26 -10,-12 -17,-8 -25,-6z"/>
   <path class="fil0 str0" d="M1438 348c-8,5 -13,11 -9,24 2,7 17,19 31,8 15,-14 1,-33 -8,-33l-14 1z"/>
   <path class="fil0 str0" d="M533 348c-8,5 -13,11 -9,24 2,7 17,19 31,8 15,-14 1,-33 -8,-33l-14 1z"/>
   <path class="fil0 str0" d="M330 507c-10,9 -9,7 -9,20 0,8 14,25 31,12 7,-7 9,-18 2,-26 -9,-12 -16,-8 -24,-6z"/>
   <path class="fil0 str0" d="M305 122c-18,18 -3,34 5,35 16,4 25,-10 25,-14 0,-7 0,-15 -8,-21 -8,-4 -15,-2 -22,0z"/>
   <path class="fil0 str0" d="M1210 122c-18,18 -3,34 5,35 16,4 25,-10 25,-14 0,-7 0,-15 -8,-21 -8,-4 -15,-2 -22,0z"/>
   <path class="fil0 str0" d="M600 793c-5,3 -10,9 -10,16 0,22 28,28 38,8 1,-4 0,-13 0,-14 -1,-1 -8,-11 -14,-11l-14 1z"/>
   <path class="fil0 str0" d="M1505 793c-5,3 -10,9 -10,16 0,22 28,28 38,8 1,-4 0,-13 0,-14 -1,-1 -8,-11 -14,-11l-14 1z"/>
   <path class="fil0 str0" d="M986 573c-4,4 -9,8 -10,12l0 12c0,3 8,14 16,14 3,0 8,0 12,-3 0,0 10,-8 10,-14 0,-7 0,-8 -4,-15 -10,-11 -18,-6 -24,-6z"/>
   <path class="fil0 str0" d="M81 573c-4,4 -9,8 -10,12l0 12c0,3 8,14 16,14 3,0 8,0 12,-3 0,0 9,-8 9,-14 0,-7 1,-8 -3,-15 -10,-11 -18,-6 -24,-6z"/>
   <path class="fil0 str0" d="M1277 56c-2,3 -1,0 -1,4 7,3 114,2 132,2 1,-4 1,-2 2,-5 -8,-6 -116,-1 -133,-1z"/>
   <path class="fil0 str0" d="M372 56c-2,3 -1,0 -1,4 7,3 114,2 132,2 1,-4 1,-2 1,-5 -7,-6 -115,-1 -132,-1z"/>
   <path class="fil0 str0" d="M823 510c1,3 0,2 3,5l100 0c9,0 28,3 32,-5 -6,-5 -84,-3 -102,-3 -8,0 -30,-3 -33,3z"/>
   <path class="fil0 str0" d="M1452 730c-3,2 -7,5 -7,9l0 12c2,7 19,20 32,3 8,-12 -5,-26 -12,-26 -11,0 -6,-1 -13,2z"/>
   <path class="fil0 str0" d="M547 730c-3,2 -7,5 -7,9l0 12c2,7 19,20 32,3 8,-12 -5,-26 -12,-26 -12,0 -6,-1 -13,2z"/>
   <path class="fil0 str0" d="M557 204c-3,2 -3,4 -5,7l0 12c1,5 12,15 23,11 5,-3 16,-15 9,-26 -5,-7 -11,-8 -18,-8 -3,0 -7,2 -9,4z"/>
   <path class="fil0 str0" d="M1462 204c-3,2 -3,4 -5,7l0 12c1,5 12,15 23,11 5,-3 16,-15 9,-26 -5,-7 -11,-8 -18,-8 -3,0 -7,2 -9,4z"/>
   <path class="fil0 str0" d="M690 737c-8,7 -12,15 -5,25 13,19 43,-3 28,-21 -7,-8 -15,-7 -23,-4z"/>
   <path class="fil0 str0" d="M1467 426c-11,8 -10,11 -10,21 0,6 8,12 10,12 17,7 35,-18 17,-30 -7,-5 -15,-3 -17,-3z"/>
   <path class="fil0 str0" d="M562 426c-11,8 -10,11 -10,21 0,6 8,12 10,12 17,7 35,-18 17,-30 -7,-5 -15,-3 -17,-3z"/>
   <path class="fil0 str0" d="M219 89l-6 6c-2,4 -3,17 6,24 19,12 39,-19 20,-30 -6,-4 -14,-3 -20,0z"/>
   <path class="fil0 str0" d="M1125 89l-6 6c-3,4 -4,17 6,24 18,12 38,-19 19,-30 -6,-4 -14,-3 -19,0z"/>
   <path class="fil0 str0" d="M365 599c-11,6 -11,9 -11,18 0,8 8,15 18,15 5,0 13,-4 15,-9 3,-6 3,-13 0,-18 -4,-5 -12,-8 -16,-8 -4,2 -3,2 -6,2z"/>
   <path class="fil0 str0" d="M1270 599c-11,6 -10,9 -10,18 0,8 8,15 17,15 5,0 13,-4 16,-9 2,-6 2,-13 -1,-18 -4,-5 -12,-8 -16,-8 -4,2 -3,2 -6,2z"/>
   <path class="fil0 str0" d="M786 428c-5,4 -8,6 -8,16 0,17 22,22 32,9 6,-10 1,-21 -6,-25l-10 -2c-3,0 -6,1 -8,2z"/>
   <path class="fil0 str0" d="M743 193c-6,1 -10,-1 -15,10 -9,17 12,31 23,22 6,-4 11,-10 10,-17 -3,-14 -16,-14 -18,-15z"/>
   <path class="fil0 str0" d="M899 315c-4,3 -8,6 -8,15 0,6 4,14 11,17 12,5 32,-12 20,-27 -7,-9 -14,-9 -23,-5z"/>
   <path class="fil0 str0" d="M895 771c-4,6 -7,14 -1,21 2,4 9,9 14,9 5,0 18,-8 18,-18 0,-6 -4,-12 -8,-15 -5,-3 -10,-2 -14,-2 -4,0 -7,2 -9,5z"/>
   <path class="fil0 str0" d="M237 784c-6,6 -7,6 -7,17 0,12 16,22 28,11 3,-3 5,-6 6,-9 0,-4 0,-6 0,-9 -1,-3 -8,-10 -9,-10 -5,-4 -12,-2 -18,0z"/>
   <path class="fil0 str0" d="M1143 784c-7,6 -8,6 -8,17 0,12 16,22 29,11 2,-3 4,-6 5,-9 0,-4 0,-6 0,-9 -1,-3 -8,-10 -8,-10 -6,-4 -13,-2 -18,0z"/>
   <path class="fil0 str0" d="M908 539c-4,1 -15,0 -17,15 -2,13 14,27 28,15 3,-3 6,-7 7,-12 0,-6 -4,-13 -9,-17 -5,-1 -6,0 -9,-1z"/>
   <path class="fil0 str0" d="M674 315c-1,0 -4,1 -4,2 -14,12 0,38 19,29 21,-11 7,-41 -15,-31z"/>
   <path class="fil0 str0" d="M177 194c-5,3 -10,7 -10,16 0,16 19,25 31,11 10,-13 -2,-26 -9,-27 -6,-2 -7,0 -12,0z"/>
   <path class="fil0 str0" d="M1083 194c-6,3 -11,7 -11,16 0,16 19,25 31,11 10,-13 -2,-26 -9,-27 -6,-2 -7,0 -11,0z"/>
   <path class="fil0 str0" d="M336 426c-4,3 -9,6 -10,11l0 13c1,4 14,17 27,6 5,-4 7,-7 7,-15 0,-9 -9,-15 -18,-15 -2,0 -4,0 -6,0z"/>
   <path class="fil0 str0" d="M1241 426c-4,3 -9,6 -10,11l0 13c1,4 14,17 27,6 5,-4 7,-7 7,-15 0,-9 -9,-15 -17,-15 -3,0 -5,0 -7,0z"/>
   <path class="fil0 str0" d="M1015 426c-6,3 -9,6 -10,12 -2,8 0,16 9,21 6,3 12,2 18,-3 4,-3 7,-8 7,-13 0,-10 -10,-18 -18,-17 -4,1 -3,0 -6,0z"/>
   <path class="fil0 str0" d="M110 426c-6,3 -9,6 -11,12 -1,8 1,16 9,21 7,3 13,2 18,-3 5,-3 8,-8 8,-13 0,-10 -10,-18 -18,-17 -4,1 -3,0 -6,0z"/>
   <path class="fil0 str0" d="M1123 317c-4,3 -3,3 -5,7 0,4 0,2 -1,6 1,3 1,2 1,7 1,4 14,17 27,7 17,-15 0,-41 -22,-27z"/>
   <path class="fil0 str0" d="M218 317c-4,3 -3,3 -5,7 0,4 0,2 -1,6 1,3 1,2 1,7 1,4 14,17 27,7 17,-15 0,-41 -22,-27z"/>
   <path class="fil0 str0" d="M673 540c-7,7 -8,7 -8,17 0,18 24,23 33,6 6,-13 -6,-24 -12,-24l-13 1z"/>
   <path class="fil0 str0" d="M1571 479c-4,3 -8,6 -11,10 -10,11 -17,15 -18,21 7,12 17,4 26,-3 4,-4 21,-18 16,-27 -5,-7 -12,-2 -13,-1z"/>
   <path class="fil0 str0" d="M666 479c-4,3 -8,6 -11,10 -10,11 -17,15 -18,21 7,12 17,4 26,-3 4,-4 21,-18 16,-27 -5,-7 -12,-2 -13,-1z"/>
   <path class="fil0 str0" d="M1113 30c-4,4 -23,24 -23,27 -1,4 7,10 16,6 4,-3 27,-23 27,-31 -2,-3 -5,-8 -8,-8 -4,0 -9,4 -12,6z"/>
   <path class="fil0 str0" d="M207 30c-3,4 -22,24 -22,27 -1,4 7,10 16,6 4,-3 27,-23 27,-31 -2,-3 -5,-8 -9,-8 -3,0 -8,4 -12,6z"/>
   <path class="fil0 str0" d="M1115 482l-19 19c-3,3 -4,4 -6,6l0 6c13,10 21,-3 29,-9 5,-5 18,-17 11,-26 -5,-5 -12,2 -15,4z"/>
   <path class="fil0 str0" d="M210 482l-19 19c-3,3 -4,4 -6,6l0 6c13,10 21,-3 28,-9 6,-5 19,-17 12,-26 -5,-5 -12,2 -15,4z"/>
   <path class="fil0 str0" d="M410 99l0 5c9,8 25,31 37,31 6,-5 10,-8 2,-19 -2,-2 -20,-21 -27,-21 -5,0 -7,1 -12,4z"/>
   <path class="fil0 str0" d="M1316 99l0 5c8,8 24,31 37,31 5,-5 9,-8 1,-19 -2,-2 -20,-21 -26,-21 -6,0 -8,1 -12,4z"/>
   <path class="fil0 str0" d="M663 29l-17 16c-6,7 -9,8 -9,15 2,2 8,5 11,5 5,-1 32,-23 32,-32 0,-6 -6,-10 -8,-9 -5,1 -6,2 -9,5z"/>
   <path class="fil0 str0" d="M1316 680l0 4c6,7 27,33 35,33 0,-1 11,-5 7,-14 -3,-5 -23,-27 -30,-27 -7,0 -7,0 -12,4z"/>
   <path class="fil0 str0" d="M410 680l0 4c7,7 28,33 36,33 0,-1 11,-5 6,-14 -2,-5 -22,-27 -30,-27 -6,0 -6,0 -12,4z"/>
   <path class="fil0 str0" d="M1568 29l-17 16c-6,7 -9,8 -9,15 2,2 8,5 11,5 6,-1 18,-15 20,-15 20,-17 9,-27 4,-26 -5,1 -6,2 -9,5z"/>
   <path class="fil0 str0" d="M641 255c-4,2 -4,2 -6,6 8,5 27,3 42,3 2,0 4,-2 7,-3 -5,-8 -17,-12 -25,-12 -7,0 -13,3 -18,6z"/>
   <path class="fil0 str0" d="M1546 255c-4,2 -4,2 -6,6 8,5 27,3 42,3 2,0 4,-2 7,-3 -5,-8 -17,-12 -25,-12 -7,0 -13,3 -18,6z"/>
   <path class="fil0 str0" d="M1136 602c-8,6 -8,3 -13,10 3,3 0,2 6,2 8,2 35,4 43,-2l-14 -10c-4,0 -8,-1 -11,-2 -4,1 -8,2 -11,2z"/>
   <path class="fil0 str0" d="M231 602c-8,6 -8,3 -13,10 3,3 0,2 6,2 8,2 35,4 43,-2l-15 -10c-3,0 -7,-1 -10,-2 -4,1 -8,2 -11,2z"/>
   <path class="fil0 str0" d="M1524 638c-6,4 -4,1 -11,7 -4,4 -5,5 -7,8 4,6 16,0 22,0l4 0c7,-3 15,-3 22,-8 -5,-3 -10,-6 -15,-7l-5 0c-11,-1 -1,0 -10,0z"/>
   <path class="fil0 str0" d="M619 638c-6,4 -4,1 -11,7 -4,4 -5,5 -7,8 4,6 16,0 22,0l4 0c7,-3 15,-3 22,-8 -5,-3 -10,-6 -15,-7l-5 0c-11,-1 -1,0 -10,0z"/>
   <path class="fil0 str0" d="M254 238l-4 6c6,4 6,1 13,0l4 0c3,-2 7,-2 11,-3 2,-1 15,-1 19,-6 -6,-7 -17,-7 -24,-7 -7,0 -14,5 -19,10z"/>
   <path class="fil0 str0" d="M1159 238l-4 6c6,4 6,1 13,0l4 0c3,-2 7,-2 11,-3 2,-1 15,-1 19,-6 -6,-7 -17,-7 -24,-7 -7,0 -14,5 -19,10z"/>
   <path class="fil0 str0" d="M1070 444c-5,4 -10,9 -8,15 0,4 7,10 15,8 11,-4 18,-23 -1,-23 -5,0 -3,0 -6,0z"/>
   <path class="fil0 str0" d="M165 444c-5,4 -10,9 -9,15 1,4 8,10 15,8 12,-4 19,-23 0,-23 -5,0 -3,0 -6,0z"/>
   <path class="fil0 str0" d="M1291 729c-3,4 -6,8 1,16 4,5 13,6 17,4l5 -5c0,-7 0,-8 -3,-12 -5,-6 -9,-5 -15,-5 -4,0 -3,0 -5,2z"/>
   <path class="fil0 str0" d="M386 729c-3,4 -6,8 1,16 4,5 13,6 17,4l4 -5c0,-7 1,-8 -3,-12 -4,-6 -8,-5 -15,-5 -3,0 -2,0 -4,2z"/>
   <path class="fil0 str0" d="M1522 444c-6,6 -7,6 -7,15 0,6 8,8 9,9 2,-1 5,-2 8,-3 3,-1 15,-13 4,-21 -4,-2 -14,0 -14,0z"/>
   <path class="fil0 str0" d="M617 444c-6,6 -7,6 -7,15 0,6 8,8 9,9 2,-1 5,-2 8,-3 3,-1 15,-13 4,-21 -4,-2 -14,0 -14,0z"/>
   <path class="fil0 str0" d="M1291 147c-3,5 -4,9 -1,14 0,2 6,7 11,7 8,0 6,1 13,-6 0,-4 0,-8 -3,-12 -5,-5 -10,-4 -15,-4 -4,0 -3,0 -5,1z"/>
   <path class="fil0 str0" d="M386 147c-3,5 -4,9 -2,14 1,2 7,7 12,7 8,0 6,1 12,-6 0,-4 1,-8 -2,-12 -5,-5 -10,-4 -16,-4 -3,0 -2,0 -4,1z"/>
   <path class="fil0 str0" d="M861 152c-6,3 -6,4 -6,10 0,6 4,8 6,10 8,-4 10,-6 14,-13 -3,-4 -4,-5 -6,-7l-8 0z"/>
   <path class="fil0 str0" d="M42 638c-7,11 8,17 9,18 6,1 11,-11 6,-17 -4,-5 -10,-3 -15,-1z"/>
   <path class="fil0 str0" d="M947 638c-7,11 8,17 9,18 6,1 11,-11 7,-17 -5,-5 -11,-3 -16,-1z"/>
   <path class="fil0 str0" d="M898 158c-2,1 -2,2 -3,3 5,3 4,3 9,1 -1,-6 -1,-4 -6,-4z"/>
   <path class="fil0 str0" d="M893 134c-3,2 -2,1 -3,3 4,3 5,4 9,0 -3,-5 -1,-3 -6,-3z"/>
   <path class="fil0 str0" d="M895 146c-2,1 -2,2 -3,3 5,3 4,3 9,1 -1,-6 -1,-4 -6,-4z"/>
   <path class="fil0 str0" d="M21 605c-3,4 -2,0 -3,6 5,1 6,1 9,-2 -3,-3 -2,-3 -6,-4z"/>
   <path class="fil0 str0" d="M926 605c-3,4 -2,0 -2,6 4,1 5,1 9,-2 -4,-3 -3,-3 -7,-4z"/>
   <path class="fil0 str0" d="M886 108c-2,7 5,5 8,2 -4,-5 -3,-4 -8,-2z"/>
   <path class="fil0 str0" d="M101 665c-3,4 -3,5 -2,9 6,0 1,1 6,-2 -2,-4 -1,-2 -4,-7z"/>
   <path class="fil0 str0" d="M1006 665c-3,4 -3,5 -1,9 5,0 0,1 5,-2 -2,-4 -1,-2 -4,-7z"/>
   <path class="fil0 str0" d="M850 192c0,5 -1,2 2,6 4,-3 2,-1 4,-6 -4,-5 -2,-5 -6,0z"/>
   <path class="fil0 str0" d="M927 593c0,6 -2,2 3,6 4,-2 2,-1 6,-3 -7,-6 -5,-3 -9,-3z"/>
   <path class="fil0 str0" d="M21 593c1,6 -1,2 3,6 5,-2 3,-1 6,-3 -6,-6 -4,-3 -9,-3z"/>
   <path class="fil0 str0" d="M17 618c-1,3 0,1 -1,5 5,3 4,2 10,0 -4,-4 -4,-4 -9,-5z"/>
   <path class="fil0 str0" d="M923 618c-2,3 -1,1 -1,5 4,3 3,2 9,0 -4,-4 -4,-4 -8,-5z"/>
   <path class="fil0 str0" d="M861 193c1,6 -1,5 4,8 2,-5 2,-5 1,-9l-5 1z"/>
   <path class="fil0 str0" d="M574 894c-2,3 -2,0 0,4 3,-1 0,0 4,-2 -5,-4 -1,-1 -4,-2z"/>
   <path class="fil0 str0" d="M1479 894c-2,3 -2,0 0,4 3,-1 0,0 4,-2 -5,-4 -1,-1 -4,-2z"/>
   <path class="fil0 str0" d="M1144 434c-2,3 -2,1 0,4 4,-3 4,-1 0,-4z"/>
   <path class="fil0 str0" d="M239 434c-2,3 -2,1 0,4 4,-3 4,-1 0,-4z"/>
   <path class="fil0 str0" d="M1467 220c2,-3 1,-2 3,-4 -5,-2 -6,-2 -3,4z"/>
   <path class="fil0 str0" d="M562 220c2,-3 1,-2 3,-4 -5,-2 -6,-2 -3,4z"/>
   <path class="fil0 str0" d="M464 755c-1,3 -2,2 3,4 1,-4 2,-3 -3,-4z"/>
   <path class="fil0 str0" d="M464 173c-1,4 -2,3 3,4 1,-3 2,-2 -3,-4z"/>
   <path class="fil0 str0" d="M692 750c-2,3 -3,2 2,4 1,-4 2,-3 -2,-4z"/>
   <path class="fil0 str0" d="M1596 751c1,3 -1,1 3,3 2,-8 -2,-3 -3,-3z"/>
   <path class="fil0 str0" d="M1143 888c1,3 -1,1 3,3 2,-8 -2,-3 -3,-3z"/>
   <path class="fil0 str0" d="M1369 756c1,3 -1,1 3,3 2,-8 -2,-3 -3,-3z"/>
   <path class="fil0 str0" d="M237 888c2,3 0,1 3,3 3,-8 -1,-3 -3,-3z"/>
   <path class="fil0 str0" d="M692 434c-2,3 -2,1 0,4 3,-3 3,-2 0,-4z"/>
   <path class="fil0 str0" d="M1597 434c-2,3 -2,1 0,4 3,-3 3,-2 0,-4z"/>
   <path class="fil0 str0" d="M686 555c2,4 1,4 5,0 -6,-2 -4,1 -5,0z"/>
   <path class="fil0 str0" d="M1591 555c2,4 1,4 5,0 -6,-2 -4,1 -5,0z"/>
   <path class="fil0 str0" d="M1478 216c1,4 0,3 4,2 -2,-7 -3,-2 -4,-2z"/>
   <path class="fil0 str0" d="M705 750c-2,3 -2,0 0,4 4,-2 4,-3 0,-4z"/>
   <path class="fil0 str0" d="M1370 173c-2,4 -2,1 0,4 4,-1 4,-2 0,-4z"/>
   <path class="fil0 str0" d="M562 743c-2,3 -2,0 0,4 4,-2 4,-3 0,-4z"/>
   <path class="fil0 str0" d="M234 101c-1,4 -1,1 0,4 5,-1 5,-2 0,-4z"/>
   <path class="fil0 str0" d="M1467 743c-2,3 -2,0 0,4 4,-2 4,-3 0,-4z"/>
   <path class="fil0 str0" d="M1139 102c1,5 0,4 4,2 -2,-6 -3,-1 -4,-2z"/>
   <path class="fil0 str0" d="M574 215c-2,3 -2,0 0,4 4,-2 4,-3 0,-4z"/>
   <path class="fil0 str0" d="M240 802c3,-2 1,-1 3,-3 -4,-2 -6,-3 -3,3z"/>
   <path class="fil0 str0" d="M1145 802c3,-2 1,-1 3,-3 -4,-2 -6,-3 -3,3z"/>
   <path class="fil0 str0" d="M914 785c3,-2 1,-1 3,-3 -4,-2 -6,-3 -3,3z"/>
   <path class="fil0 str0" d="M8 785c4,-2 2,-1 3,-3 -3,-2 -5,-3 -3,3z"/>
   <path class="fil0 str0" d="M348 898c3,-2 1,-1 3,-3 -4,-2 -6,-3 -3,3z"/>
   <path class="fil0 str0" d="M788 898c3,-2 1,-1 3,-3 -4,-2 -6,-3 -3,3z"/>
   <path class="fil0 str0" d="M1270 617c3,-1 1,0 3,-3 -4,-1 -6,-2 -3,3z"/>
   <path class="fil0 str0" d="M365 617c3,-1 1,0 3,-3 -4,-1 -6,-2 -3,3z"/>
   <path class="fil0 str0" d="M1253 898c3,-2 1,-1 3,-3 -4,-2 -6,-3 -3,3z"/>
   <path class="fil0 str0" d="M801 898c3,-2 1,-1 3,-3 -4,-2 -6,-3 -3,3z"/>
   <path class="fil0 str0" d="M177 213c3,-2 1,-1 3,-3 -4,-2 -6,-3 -3,3z"/>
   <path class="fil0 str0" d="M1082 213c3,-2 1,-1 3,-3 -4,-2 -6,-3 -3,3z"/>
   <path class="fil0 str0" d="M8 87c4,-1 2,0 3,-3 -3,-1 -5,-2 -3,3z"/>
   <path class="fil0 str0" d="M914 87c3,-1 1,0 3,-3 -4,-1 -6,-2 -3,3z"/>
   <path class="fil0 str0" d="M749 213c3,-2 1,-1 3,-3 -4,-2 -6,-3 -3,3z"/>
   <path class="fil0 str0" d="M8 558c4,-1 2,0 3,-3 -3,-1 -5,-2 -3,3z"/>
   <path class="fil0 str0" d="M914 558c3,-1 1,0 3,-3 -4,-1 -6,-2 -3,3z"/>
   <path class="fil0 str0" d="M675 558c3,-1 1,0 3,-3 -4,-1 -6,-2 -3,3z"/>
   <path class="fil0 str0" d="M1580 558c3,-1 1,0 3,-3 -4,-1 -6,-2 -3,3z"/>
   <path class="fil0 str0" d="M1095 213c3,-2 1,-1 3,-3 -4,-2 -6,-3 -3,3z"/>
   <path class="fil0 str0" d="M189 213c4,-2 2,-1 3,-3 -3,-2 -5,-3 -3,3z"/>
   <path class="fil0 str0" d="M1467 898c3,-2 1,-1 3,-3 -4,-2 -6,-3 -3,3z"/>
   <path class="fil0 str0" d="M901 785c3,-2 1,-1 3,-3 -4,-2 -6,-3 -3,3z"/>
   <path class="fil0 str0" d="M122 898c3,-2 1,-1 3,-3 -4,-2 -6,-3 -3,3z"/>
   <path class="fil0 str0" d="M562 898c3,-2 1,-1 3,-3 -4,-2 -6,-3 -3,3z"/>
   <path class="fil0 str0" d="M1027 898c3,-2 1,-1 3,-3 -4,-2 -6,-3 -3,3z"/>
   <path class="fil0 str0" d="M550 747c3,-2 1,-1 3,-3 -4,-2 -6,-3 -3,3z"/>
   <path class="fil0 str0" d="M1455 747c3,-2 1,-1 3,-3 -4,-2 -6,-3 -3,3z"/>
   <path class="fil0 str0" d="M562 446c3,-2 1,-1 3,-3 -4,-2 -6,-3 -3,3z"/>
   <path class="fil0 str0" d="M1467 446c3,-2 1,-1 3,-3 -4,-2 -6,-3 -3,3z"/>
   <path class="fil0 str0" d="M547 134c3,0 1,1 4,-2 -3,0 -4,-3 -4,2z"/>
   <path class="fil0 str0" d="M1452 134c3,0 1,1 4,-2 -3,0 -4,-3 -4,2z"/>
   <path class="fil0 str0" d="M692 887c-2,3 -2,0 0,4 4,-4 4,-1 0,-4z"/>
   <path class="fil0 str0" d="M1597 887c-2,3 -2,0 0,4 4,-4 4,-1 0,-4z"/>
   <path class="fil0 str0" d="M1453 369c-2,3 -2,0 0,4 4,-4 4,-1 0,-4z"/>
   <path class="fil0 str0" d="M548 369c-2,3 -2,0 0,4 4,-4 4,-1 0,-4z"/>
   <path class="fil0 str0" d="M1520 814c-2,3 -2,0 0,4 4,-4 4,-1 0,-4z"/>
   <path class="fil0 str0" d="M615 814c-2,3 -2,0 0,4 4,-4 4,-1 0,-4z"/>
   <path class="fil0 str0" d="M1241 894c-2,3 -2,0 0,4 4,-4 4,-1 0,-4z"/>
   <path class="fil0 str0" d="M336 894c-2,3 -2,0 0,4 4,-4 4,-1 0,-4z"/>
   <path class="fil0 str0" d="M903 74c-2,3 -2,0 0,3 4,-3 4,0 0,-3z"/>
   <path class="fil0 str0" d="M1314 814c3,4 0,4 4,0 -6,-3 -1,0 -4,0z"/>
   <path class="fil0 str0" d="M408 814c4,4 1,4 5,0 -6,-3 -1,0 -5,0z"/>
   <path class="fil0 str0" d="M344 518c3,4 0,4 4,0 -6,-3 -1,0 -4,0z"/>
   <path class="fil0 str0" d="M1439 370c3,4 0,4 4,0 -6,-3 -1,0 -4,0z"/>
   <path class="fil0 str0" d="M533 370c4,4 1,4 4,0 -5,-3 0,0 -4,0z"/>
   <path class="fil0 str0" d="M1026 443c3,4 0,4 4,0 -6,-3 -1,0 -4,0z"/>
   <path class="fil0 str0" d="M120 443c4,4 1,4 5,0 -6,-3 -1,0 -5,0z"/>
   <path class="fil0 str0" d="M375 614c4,5 1,5 5,0 -6,-2 -1,1 -5,0z"/>
   <path class="fil0 str0" d="M1281 614c3,5 0,5 4,0 -6,-2 -1,1 -4,0z"/>
   <path class="fil0 str0" d="M347 443c3,4 0,4 4,0 -6,-3 -1,0 -4,0z"/>
   <path class="fil0 str0" d="M533 132c4,5 1,5 4,0 -5,-2 0,1 -4,0z"/>
   <path class="fil0 str0" d="M735 210c3,4 0,4 4,0 -6,-3 -1,0 -4,0z"/>
   <path class="fil0 str0" d="M1439 132c3,5 0,5 4,0 -6,-2 -1,1 -4,0z"/>
   <path class="fil0 str0" d="M308 143c3,5 0,5 4,0 -6,-2 -1,1 -4,0z"/>
   <path class="fil0 str0" d="M1249 518c3,4 0,4 4,0 -6,-3 -1,0 -4,0z"/>
   <path class="fil0 str0" d="M767 518c3,4 0,4 4,0 -6,-3 -1,0 -4,0z"/>
   <path class="fil0 str0" d="M1252 443c3,4 0,4 4,0 -6,-3 -1,0 -4,0z"/>
   <path class="fil0 str0" d="M234 330c3,4 0,4 3,0 -5,-3 0,0 -3,0z"/>
   <path class="fil0 str0" d="M1139 330c3,4 0,4 4,0 -6,-3 -1,0 -4,0z"/>
   <path class="fil0 str0" d="M1213 143c3,5 0,5 4,0 -6,-2 -1,1 -4,0z"/>
   <path class="fil0 str0" d="M308 132c0,1 0,5 2,2 3,-3 -2,-1 -2,-2z"/>
   <path class="fil0 str0" d="M1213 132c0,1 0,5 2,2 3,-3 -2,-1 -2,-2z"/>
   <path class="fil0 str0" d="M1023 353c5,-8 -3,-6 0,0z"/>
   <path class="fil0 str0" d="M117 353c6,-8 -2,-6 0,0z"/>
   <path class="fil0 str0" d="M108 896c6,4 7,-4 0,0z"/>
   <path class="fil0 str0" d="M221 104c6,4 7,-4 0,0z"/>
   <path class="fil0 str0" d="M1126 104c6,4 7,-4 0,0z"/>
   <path class="fil0 str0" d="M1013 896c6,4 7,-4 0,0z"/>
   <path class="fil0 str0" d="M398 828c3,-3 2,0 1,-4 -3,2 -3,-1 -1,4z"/>
   <path class="fil0 str0" d="M1508 807c3,-3 2,0 1,-4 -3,2 -3,-1 -1,4z"/>
   <path class="fil0 str0" d="M547 360c0,0 1,4 2,0 2,-4 -2,0 -2,0z"/>
   <path class="fil0 str0" d="M396 814c1,0 2,4 3,0 2,-4 -2,0 -3,0z"/>
   <path class="fil0 str0" d="M1035 350c0,0 1,4 2,0 2,-4 -2,0 -2,0z"/>
   <path class="fil0 str0" d="M195 698c0,1 1,5 2,1 2,-4 -2,0 -2,-1z"/>
   <path class="fil0 str0" d="M1507 815c0,0 1,4 2,0 2,-4 -2,0 -2,0z"/>
   <path class="fil0 str0" d="M800 443c0,0 1,4 2,0 2,-4 -2,0 -2,0z"/>
   <path class="fil0 str0" d="M913 330c0,0 1,4 2,0 2,-4 -2,0 -2,0z"/>
   <path class="fil0 str0" d="M1237 528c0,1 1,5 2,1 2,-4 -2,0 -2,-1z"/>
   <path class="fil0 str0" d="M332 528c0,1 1,5 2,1 2,-4 -2,0 -2,-1z"/>
   <path class="fil0 str0" d="M1240 443c0,0 1,4 2,0 2,-4 -2,0 -2,0z"/>
   <path class="fil0 str0" d="M602 815c0,0 1,4 2,0 2,-4 -2,0 -2,0z"/>
   <path class="fil0 str0" d="M1156 799c2,3 -1,2 4,1 -5,-5 -3,-1 -4,-1z"/>
   <path class="fil0 str0" d="M251 799c2,3 -1,2 4,1 -5,-5 -3,-1 -4,-1z"/>
   <path class="fil0 str0" d="M533 596c3,4 0,3 4,1 -4,-4 -2,0 -4,-1z"/>
   <path class="fil0 str0" d="M1439 596c2,4 -1,3 4,1 -5,-4 -3,0 -4,-1z"/>
   <path class="fil0 str0" d="M1112 698c2,4 -1,3 4,1 -5,-4 -3,0 -4,-1z"/>
   <path class="fil0 str0" d="M207 698c2,4 -1,3 3,1 -4,-4 -2,0 -3,-1z"/>
   <path class="fil0 str0" d="M1591 330c2,3 -1,2 4,1 -5,-5 -3,-1 -4,-1z"/>
   <path class="fil0 str0" d="M93 587c4,1 1,0 5,0 -3,-3 -1,-4 -5,0z"/>
   <path class="fil0 str0" d="M900 557c3,1 0,0 4,0 -3,-3 -1,-4 -4,0z"/>
   <path class="fil0 str0" d="M1579 331c3,1 0,0 4,0 -3,-3 -1,-4 -4,0z"/>
   <path class="fil0 str0" d="M616 807c1,-4 0,-1 0,-4 -3,2 -4,0 0,4z"/>
   <path class="fil0 str0" d="M1521 807c1,-4 0,-1 0,-4 -3,2 -4,0 0,4z"/>
   <path class="fil0 str0" d="M787 444c4,1 1,2 4,-1 -5,-2 -2,-3 -4,1z"/>
   <path class="fil0 str0" d="M999 587c4,1 1,2 4,-2 -5,-1 -2,-2 -4,2z"/>
   <path class="fil0 str0" d="M1478 444c4,1 1,2 4,-1 -5,-2 -2,-3 -4,1z"/>
   <path class="fil0 str0" d="M573 444c4,1 1,2 4,-1 -5,-2 -2,-3 -4,1z"/>
   <path class="fil0 str0" d="M1013 444c4,1 1,2 4,-1 -5,-2 -2,-3 -4,1z"/>
   <path class="fil0 str0" d="M108 444c4,1 1,2 3,-1 -4,-2 -1,-3 -3,1z"/>
   <path class="fil0 str0" d="M207 710c4,2 1,3 3,-1 -4,-1 -1,-2 -3,1z"/>
   <path class="fil0 str0" d="M1112 710c4,2 1,3 4,-1 -5,-1 -2,-2 -4,1z"/>
   <path class="fil0 str0" d="M603 803c-2,3 -2,0 0,4 2,-3 2,-2 0,-4z"/>
   <path class="fil0 str0" d="M1303 824c-2,3 -2,0 0,4 2,-3 2,-2 0,-4z"/>
   <path class="fil0 str0" d="M533 143c3,3 2,3 4,0 -5,-2 0,1 -4,0z"/>
   <path class="fil0 str0" d="M1439 143c2,3 1,3 4,0 -6,-2 -1,1 -4,0z"/>
   <path class="fil0 str0" d="M900 330c2,2 1,2 4,0 -6,-3 -1,0 -4,0z"/>
   <path class="fil0 str0" d="M221 330c2,2 1,2 4,0 -6,-3 -1,0 -4,0z"/>
   <path class="fil0 str0" d="M1126 330c2,2 1,2 4,0 -6,-3 -1,0 -4,0z"/>
   <path class="fil0 str0" d="M674 330c2,2 1,2 4,0 -6,-3 -1,0 -4,0z"/>
   <path class="fil0 str0" d="M686 330c2,2 1,2 4,0 -6,-3 -1,0 -4,0z"/>
   <path class="fil0 str0" d="M1453 143c-2,6 5,3 0,0z"/>
   <path class="fil0 str0" d="M548 143c-2,6 5,3 0,0z"/>
   <path class="fil0 str0" d="M321 146c5,-6 -2,-5 0,0z"/>
   <path class="fil0 str0" d="M1227 135c4,-6 -3,-5 0,0z"/>
   <path class="fil0 str0" d="M321 135c5,-6 -2,-5 0,0z"/>
   <path class="fil0 str0" d="M1227 146c4,-6 -3,-5 0,0z"/>
   <path class="fil0 str0" d="M333 521c4,-7 -3,-6 0,0z"/>
   <path class="fil0 str0" d="M1238 521c4,-7 -3,-6 0,0z"/>
   <path class="fil0 str0" d="M1000 599c6,-5 -2,-5 0,0z"/>
   <path class="fil0 str0" d="M95 599c6,-5 -2,-5 0,0z"/>
   <path class="fil0 str0" d="M536 358c-4,6 1,6 0,0z"/>
   <path class="fil0 str0" d="M1441 358c-4,6 1,6 0,0z"/>
   <path class="fil0 str0" d="M344 528c3,6 1,2 3,2 -2,-4 -2,-1 -3,-2z"/>
   <path class="fil0 str0" d="M1316 824c-2,3 -2,0 0,4 1,-4 1,-1 0,-4z"/>
   <path class="fil0 str0" d="M410 824c-1,3 -1,0 0,4 2,-4 2,-1 0,-4z"/>
   <path class="fil0 str0" d="M1250 527c-1,4 -2,3 2,3 -1,-2 1,0 -2,-3z"/>
   <path class="fil0 str0" d="M767 530c5,1 7,-4 0,0z"/>
   <path class="fil0 str0" d="M1036 341c4,-5 -2,-5 0,0z"/>
   <path class="fil0 str0" d="M7 330c3,3 1,1 3,1 -3,-6 0,0 -3,-1z"/>
   <path class="fil0 str0" d="M83 584c-1,4 -3,1 1,3 0,-2 1,-1 -1,-3z"/>
   <path class="fil0 str0" d="M83 596c-1,3 -3,0 1,3 0,-3 1,-2 -1,-3z"/>
   <path class="fil0 str0" d="M547 597c2,1 1,2 3,-1 -3,0 -2,-1 -3,1z"/>
   <path class="fil0 str0" d="M1455 587c-4,-4 -6,0 0,0z"/>
   <path class="fil0 str0" d="M756 527c-1,6 3,4 0,0z"/>
   <path class="fil0 str0" d="M756 516c-1,6 3,4 0,0z"/>
   <path class="fil0 str0" d="M988 584c-1,6 3,4 0,0z"/>
   <path class="fil0 str0" d="M336 441c-3,4 1,6 0,0z"/>
   <path class="fil0 str0" d="M1303 813c-1,5 3,3 0,0z"/>
   <path class="fil0 str0" d="M131 338c-1,5 3,3 0,0z"/>
   <path class="fil0 str0" d="M805 306c-1,5 3,3 0,0z"/>
   <path class="fil0 str0" d="M1455 360c-6,-1 -4,3 0,0z"/>
   <path class="fil0 str0" d="M534 584c0,6 4,4 0,0z"/>
   <path class="fil0 str0" d="M1101 697c-1,6 3,4 0,0z"/>
   <path class="fil0 str0" d="M117 338c0,5 4,3 0,0z"/>
   <path class="fil0 str0" d="M1023 338c-1,5 3,3 0,0z"/>
   <path class="fil0 str0" d="M1455 596c-6,0 -4,4 0,0z"/>
   <path class="fil0 str0" d="M131 349c-1,5 3,3 0,0z"/>
   <path class="fil0 str0" d="M988 596c-1,5 3,3 0,0z"/>
   <path class="fil0 str0" d="M807 318c-6,-1 -4,3 0,0z"/>
   <path class="fil0 str0" d="M1101 708c-1,6 3,4 0,0z"/>
   <path class="fil0 str0" d="M195 708c0,6 4,4 0,0z"/>
   <path class="fil0 str0" d="M817 308c5,0 3,-4 0,0z"/>
   <path class="fil0 str0" d="M817 319c5,0 3,-4 0,0z"/>
   <path class="fil0 str0" d="M1439 587c5,0 3,-4 0,0z"/>
   <path class="fil0 str0" d="M547 587c5,0 3,-4 0,0z"/>
   <path class="fil0 str0" d="M150 2c0,8 0,9 3,16 2,4 7,9 9,12 13,-7 10,-11 18,-18 7,-4 13,-10 21,-12"/>
   <path class="fil0 str0" d="M1599 672l-52 10c-5,2 -9,2 -12,3l-82 15c-6,3 -7,4 -12,0 -6,-7 16,-16 21,-19 2,2 5,6 10,4 4,-3 4,-1 5,-7 -6,2 -7,6 -10,1 3,-3 24,-14 31,-19 2,0 10,2 15,2l28 -6c21,-4 15,-9 23,-8l16 2c3,2 4,1 8,3 4,0 4,-2 12,1 -5,7 -4,1 -10,3 3,5 3,5 9,5"/>
   <path class="fil0 str0" d="M843 186c0,3 0,2 1,5l-2 4c-7,-1 -5,-4 -2,-9m1 -3c-2,3 -1,0 -1,3l3 0c-1,-3 0,-1 -2,-3"/>
   <path class="fil0 str0" d="M87 668c-3,4 -3,5 -1,9 3,0 2,0 4,-2 0,-4 0,-3 -3,-7l0 -2"/>
   <path class="fil0 str0" d="M992 668c-3,4 -3,5 -1,9 3,0 2,0 5,-2 -1,-4 -1,-3 -4,-7l0 -2"/>
   <path class="fil0 str0" d="M74 671c-4,5 -4,6 1,8 4,-3 3,-4 -1,-8l0 -2"/>
   <path class="fil0 str0" d="M1574 188c3,-2 4,-3 8,-6m3 -2c-3,2 0,2 -3,2 0,-2 0,-2 2,-3m15 -11l-4 5c-4,2 -7,5 -10,7l-1 -1c3,-6 9,-11 15,-17"/>
   <path class="fil0 str0" d="M979 671c-4,5 -4,6 1,8 4,-3 3,-4 -1,-8l0 -2"/>
   <path class="fil0 str0" d="M669 188c3,-2 4,-3 8,-6m3 -2c-3,2 0,2 -3,2 0,-2 0,-2 2,-3m122 20c-8,-2 -7,-1 -9,-1 -11,-2 -26,-11 -29,-22 -3,-8 -1,-19 2,-27 4,-8 10,-17 17,-24 4,-8 13,-22 9,-32 -3,-2 -4,-4 -6,-7l-105 94 -1 -1c5,-9 15,-17 23,-24 9,-7 28,-28 38,-38 7,-5 16,-15 24,-22 4,-3 9,-8 12,-12m6 0l0 0m2 0c-1,-4 0,-2 2,-3 1,-2 2,-2 4,-3m-11 9c1,-4 -1,-1 3,-3l2 0c2,7 9,-5 11,-9 -5,-7 -8,0 -16,6l0 3 -3 0c-9,-4 -13,-3 -13,-3 -7,-4 -10,-4 -17,-8 -6,-5 -8,-13 -6,-19 1,-4 0,-3 1,-6 4,-9 8,-14 14,-21 3,-4 4,-5 7,-8"/>
   <path class="fil0 str0" d="M60 674c-1,-3 -1,-1 0,-3m3 3c3,4 5,5 0,8 -5,-3 -4,-4 -3,-8l3 0c-1,-4 0,-2 -3,-3"/>
   <path class="fil0 str0" d="M966 674c-2,-3 -2,-1 0,-3m2 3c3,4 5,5 0,8 -5,-3 -4,-4 -2,-8l2 0c-1,-4 0,-2 -2,-3"/>
   <path class="fil0 str0" d="M48 676c-1,-2 -1,0 0,-2m3 2c2,3 2,3 3,6 -2,3 -1,2 -3,3 -4,-3 -3,-4 -3,-9l3 0c-1,-3 0,-1 -3,-2"/>
   <path class="fil0 str0" d="M954 676c-2,-2 -2,0 0,-2m2 2c2,3 2,3 4,6 -3,3 -2,2 -4,3 -4,-3 -3,-4 -2,-9l2 0c-1,-3 0,-1 -2,-2"/>
   <path class="fil0 str0" d="M815 180c-4,3 -4,3 -4,8 4,3 3,3 6,-3 -1,-3 -1,-2 -2,-5l0 -1"/>
   <path class="fil0 str0" d="M1396 198l-4 -4c-4,-6 -11,-14 -12,-20m-21 2c12,12 53,61 62,62 -2,-6 -20,-31 -24,-36 -1,-3 -1,-2 -1,-4 6,2 14,5 20,10 7,1 14,9 22,9 -5,-6 -53,-41 -58,-43l-4 -4c-4,-4 -7,-9 -9,-15m-12 9c1,-4 1,-4 1,-9m-31 -68c-3,2 -4,3 -6,3 -4,-1 -2,-1 -5,-1 -6,5 -5,14 -2,18l31 30c7,6 9,9 13,18l11 0c-1,-5 0,-1 -2,-5 -10,-21 9,-25 -18,-48 -4,-2 -8,-5 -11,-7 -6,-5 -4,-7 -11,-8m26 86c-5,1 -20,-6 -32,-3 -9,1 -20,6 -28,0 -7,-5 -11,-12 -9,-21 1,-4 4,-9 6,-14l5 -4m57 33c0,5 0,5 1,9 3,2 4,2 8,3 -2,-4 -1,-2 -3,-6 0,-4 0,-3 -1,-6 -4,0 -2,-1 -5,0 -6,-4 -15,-3 -17,-5 -5,-3 -13,-7 -19,-10 -11,-9 -11,-18 -21,-18"/>
   <path class="fil0 str0" d="M8 681c5,2 4,1 6,5m-11 13l7 -7c2,-2 3,-3 4,-6 6,-3 6,-4 7,-9 -7,-5 -11,-1 -13,4 -5,1 -1,0 -5,2"/>
   <path class="fil0 str0" d="M491 198l-5 -4c-3,-6 -10,-14 -12,-20m-21 2c13,12 54,61 62,62 -1,-6 -19,-31 -24,-36 0,-3 0,-2 0,-4 6,2 14,5 19,10 8,1 15,9 23,9 -5,-6 -53,-41 -59,-43l-4 -4c-3,-4 -6,-9 -9,-15m-12 9c2,-4 1,-4 1,-9m-31 -68c-2,2 -3,3 -6,3 -3,-1 -1,-1 -5,-1 -5,5 -4,14 -1,18l30 30c7,6 10,9 13,18l11 0c0,-5 1,-1 -2,-5 -9,-21 10,-25 -18,-48 -3,-2 -7,-5 -10,-7 -6,-5 -4,-7 -12,-8m27 86c-5,1 -20,-6 -33,-3 -8,1 -19,6 -27,0 -7,-5 -11,-12 -9,-21 1,-4 4,-9 6,-14l4 -4m57 33c1,5 1,5 2,9 3,2 4,2 7,3 -1,-4 0,-2 -3,-6 0,-4 1,-3 -1,-6 -3,0 -1,-1 -5,0 -5,-4 -14,-3 -16,-5 -5,-3 -13,-7 -20,-10 -10,-9 -10,-18 -21,-18"/>
   <path class="fil0 str0" d="M1535 179c-1,6 -9,17 -15,16 -4,-3 -5,-4 -7,-7 0,-8 -1,-6 6,-17m3 -1c-3,2 0,1 -3,1m9 9c3,-1 3,-1 7,-1 1,-3 1,-3 4,-6 7,-17 36,-51 38,-71m-54 75c1,1 3,3 5,3 -1,6 -1,7 -5,10 -4,-2 -2,-1 -5,-4 0,-3 -1,-4 5,-9 0,-4 0,-3 -1,-7 4,-7 8,-18 14,-26 6,-13 19,-36 31,-48m6 -7c-5,3 -4,3 -6,7 2,3 1,2 4,5 3,2 2,1 6,1 3,-3 3,-2 4,-7l-2 -4c-4,-2 -2,-1 -6,-2"/>
   <path class="fil0 str0" d="M23 690c5,4 6,2 4,-4m-19 -18c5,-3 4,-2 5,-6m3 33c2,5 1,6 1,10l-2 6 -5 1c-4,1 -3,1 -7,3m12 -56c-3,-5 -5,-6 -8,-2 3,5 2,4 6,5 2,-2 2,-2 2,-3 5,-2 5,-3 11,-11l16 -16c4,-3 12,-2 15,1 5,3 9,8 9,14 -1,8 -14,17 -18,21l-12 11c4,3 3,1 6,7 -5,3 0,2 -6,2 -2,-4 -1,-2 -1,-8 -5,2 -5,2 -8,6 -4,2 -2,1 -4,4 -5,2 -4,1 -7,5 0,1 -3,2 -4,2l-4 4c0,6 0,7 -5,6m1 -35c0,-2 -1,0 -1,-4 4,-1 1,0 5,0 -1,4 0,2 -4,4l-1 2"/>
   <path class="fil0 str0" d="M630 179c-1,6 -9,17 -15,16 -4,-3 -5,-4 -7,-7 0,-8 -1,-6 6,-17m3 -1c-3,2 0,1 -3,1m9 9c3,-1 3,-1 7,-1 1,-3 1,-3 4,-6 7,-17 36,-51 38,-71m-54 75c1,1 3,3 5,3 -1,6 -1,7 -5,10 -4,-2 -2,-1 -5,-4 0,-3 -1,-4 5,-9 0,-4 0,-3 -1,-7 4,-7 8,-18 14,-26 6,-13 19,-36 31,-48m6 -7c-5,3 -4,3 -6,7 2,3 1,2 4,5 3,2 2,1 6,1 3,-3 3,-2 4,-7l-2 -4c-4,-2 -2,-1 -6,-2"/>
   <path class="fil0 str0" d="M830 183c1,7 1,7 -2,10 -3,-2 -6,-2 -1,-10m1 -3c-2,3 -1,0 -1,3l3 0c-1,-3 0,-1 -2,-3"/>
   <path class="fil0 str0" d="M578 539c0,5 1,5 4,9 5,-2 4,-2 7,-6 -4,-4 -3,-4 -7,-6m-11 3c3,0 3,0 7,0 2,-2 -1,-1 4,-3 0,-4 -1,-3 1,-6m-65 -60c2,-1 3,-2 4,-2 3,-4 2,-2 3,-6m-9 -6l-4 5c1,5 1,6 6,9 0,8 23,35 32,46 3,3 18,18 21,23l0 3c6,7 7,12 14,10 5,0 10,-5 8,-13 -1,-1 -5,-8 -10,-9 -8,-15 -21,-28 -30,-41 -5,-6 -21,-22 -28,-27 -1,-4 0,-2 -4,-6l-5 0"/>
   <path class="fil0 str0" d="M1483 539c0,5 1,5 4,9 5,-2 4,-2 7,-6 -4,-4 -3,-4 -7,-6m-11 3c3,0 3,0 7,0 2,-2 -1,-1 4,-3 0,-4 -1,-3 1,-6m-65 -60c2,-1 3,-2 5,-2 2,-4 1,-2 3,-6m-9 -6l-4 5c0,5 0,6 5,9 0,8 23,35 32,46 3,3 18,18 21,23l0 3c6,7 7,12 14,10 5,0 10,-5 8,-13 -1,-1 -5,-8 -10,-9 -8,-15 -21,-28 -30,-41 -5,-6 -21,-22 -27,-27 -2,-4 -1,-2 -4,-6l-5 0"/>
   <path class="fil0 str0" d="M4 573c5,0 5,0 9,-4 4,-3 7,-7 8,-12 0,-6 -4,-13 -10,-17 -3,-1 -3,-1 -8,-1"/>
   <path class="fil0 str0" d="M1599 569c-4,3 -10,5 -14,4 -17,-2 -18,-20 -13,-27 2,-3 6,-6 10,-7 8,-1 12,1 17,4"/>
   <path class="fil0 str0" d="M1599 769c-21,-12 -11,-31 0,-33"/>
   <path class="fil0 str0" d="M956 426c-2,1 -3,2 -5,3 -6,-3 -6,-3 -8,-9m23 30c-4,-6 -6,-16 -10,-24 1,-4 2,-3 -2,-6m-7 -4l2 5 5 -1c-1,-4 -1,-5 -2,-9l0 -3c1,-4 2,-7 3,-10m-4 -2c2,2 0,2 4,2 2,-4 3,-5 6,-8m2 0l-2 0m4 -1l-2 1m6 -3c-3,2 -1,2 -4,2m2 64c-2,-2 -1,0 -1,-3 10,-7 19,-27 24,-39 0,-3 -1,-12 -2,-15l-7 -7 -12 -2m-1 -3c-4,1 -5,2 -8,3 -4,3 -7,5 -9,9 -4,5 -3,6 -4,11l0 9c-4,2 -3,0 -4,4 -11,1 -32,8 -40,11 -4,1 -4,2 -8,3l-12 6c-12,5 -25,14 -33,25 -7,7 -25,32 -24,39l129 0c3,-4 6,-10 12,-11 4,-1 5,-2 9,-4 0,-10 -2,-8 -3,-12 -1,-5 -1,-6 -3,-9 -1,-4 -1,-4 -1,-7 -3,-5 -2,-2 -2,-8 6,-3 20,-25 23,-30 1,-4 4,-16 4,-21 -2,-9 -8,-17 -17,-18l-9 0"/>
   <path class="fil0 str0" d="M51 426c-2,1 -3,2 -6,3 -5,-3 -5,-3 -7,-9m22 30c-3,-6 -5,-16 -9,-24 1,-4 2,-3 -3,-6m-6 -4l2 5 4 -1c0,-4 0,-5 -1,-9l0 -3c1,-4 2,-7 3,-10m-5 -2c3,2 1,2 5,2 4,-8 12,-12 21,-11 2,1 1,1 4,2 4,1 9,8 9,13l0 9c-4,12 -13,32 -24,39 0,3 0,1 2,3m-59 51l47 0c3,-4 6,-10 12,-11 4,-1 5,-2 9,-4 0,-10 -2,-8 -3,-12 -1,-5 -1,-6 -3,-9 -1,-4 -1,-4 -2,-7 -2,-5 -1,-2 -1,-8 6,-3 20,-25 22,-30 2,-4 5,-16 5,-21 -3,-13 -14,-21 -26,-18 -8,1 -13,6 -18,12 -3,5 -2,6 -3,11l0 9c-4,2 -3,0 -4,4 -4,1 -2,0 -5,2l-4 0c-8,2 -19,4 -26,7"/>
   <path class="fil0 str0" d="M192 554c-2,2 -3,1 -6,3m9 -6c-1,1 -1,2 -3,3 3,4 2,3 8,6 4,-2 4,-2 4,-6 -3,-3 -4,-3 -9,-3 0,-3 -1,-6 -1,-9m-83 -29l5 -4c0,-3 0,-2 1,-5m-9 -4c-4,3 -3,1 -4,6 1,4 2,6 7,7 4,10 55,34 66,39 4,2 6,3 9,5 2,6 15,10 18,7 6,-3 6,-8 6,-12 -5,-4 -10,-9 -16,-10 -5,-1 -47,-27 -50,-29 -5,0 -3,0 -6,-3 -7,-1 -14,-6 -21,-6 -3,-3 -3,-3 -6,-4l-3 0"/>
   <path class="fil0 str0" d="M888 125c4,3 4,3 9,0 -4,-5 -6,-5 -9,0l-2 0"/>
   <path class="fil0 str0" d="M852 749c-4,1 -2,1 -6,1 -5,-5 -5,-3 -1,-7m7 5c-4,-4 -3,-4 -7,-5m13 1l3 -3m1 -3l1 -1m-7 7c-2,1 -3,3 -4,4l0 1c3,2 3,3 8,5 5,-7 2,-3 -2,-10l-2 0c-6,-6 -7,-4 -3,-9m13 2c2,2 3,2 5,6 -6,4 -4,3 -10,-2 -2,-3 -5,-5 -8,-6m16 -2c-3,2 -2,1 -3,4l-3 0c-4,-8 -7,-5 -2,-10m8 5c-4,-3 -5,-4 -8,-5m26 0c-7,5 -3,2 -10,-2m-5 3c-6,-6 -7,-4 -3,-9m8 4c-4,-3 -4,-4 -8,-4m14 1l5 0c5,-4 10,-10 16,-16m2 -1l-2 1m-30 24c1,2 3,4 5,7 -7,5 -3,2 -10,-2l0 -1c1,-2 1,-2 3,-4l2 0c1,-3 0,-2 3,-3l0 -2c4,-4 0,-3 6,-3 1,2 2,4 4,7 2,0 1,0 4,1 3,-4 10,-11 14,-12l15 -6c3,-2 4,-9 2,-15m6 -5c5,4 6,2 5,-4m-13 0c-3,-4 -2,-3 -6,-5m-18 13c-3,-3 -3,-1 -3,-6 3,-1 0,0 5,-1 2,-1 5,-6 6,-9m35 2c-4,3 -4,2 -6,6 -5,2 -3,1 -5,4 -5,2 -4,1 -6,5 -1,1 -4,2 -4,2l-4 4c-1,5 -1,4 -3,7l-5 -5c2,-4 6,-7 10,-11 1,-2 2,-3 4,-6 5,-3 5,-4 6,-9 -7,-5 -11,-1 -12,4 -9,1 -10,11 -18,13 -2,7 -11,13 -15,18l0 7c-4,-3 -7,-6 -8,-10 2,-3 0,-1 4,-4 13,-11 6,-33 27,-27 4,-1 3,-1 6,-6m4 -4c-2,4 -1,2 -4,4 -1,-2 -1,0 -1,-4 3,-1 0,0 5,0 4,-3 3,-2 5,-6m2 -3c-4,-5 -6,-6 -8,-2 2,5 1,4 6,5 1,-2 1,-2 2,-3 4,-2 4,-3 10,-11l16 -16m3 -2c-3,2 0,2 -3,2m-5 47c4,4 3,3 5,7 -5,3 0,2 -5,2 -3,-4 -2,-3 -3,-8l3 -1c5,-10 20,-16 26,-25 5,-7 2,-16 -5,-22 -4,-2 -9,-1 -13,-2"/>
   <path class="fil0 str0" d="M909 104c9,-4 15,-7 17,-18 0,-6 -6,-16 -13,-17l-4 0"/>
   <path class="fil0 str0" d="M3 104c10,-4 16,-7 18,-18 0,-6 -6,-16 -13,-17l-5 0"/>
   <path class="fil0 str0" d="M905 92c-5,-2 -11,-6 -12,-11 -2,-4 -1,-12 2,-15 4,-6 6,-6 11,-7"/>
   <path class="fil0 str0" d="M1354 18l7 0c2,-1 5,-2 9,-3 2,0 3,-1 5,-1m28 -12c0,2 0,3 1,6 -6,4 -22,6 -29,6 -4,-4 -13,-2 -18,-2 -4,4 -3,0 -3,6 -8,3 -9,2 -13,-1 -1,-7 -3,-8 5,-15"/>
   <path class="fil0 str0" d="M449 18l6 0c3,-1 6,-2 9,-3 3,0 4,-1 6,-1m27 -12c1,2 1,3 1,6 -5,4 -21,6 -28,6 -4,-4 -13,-2 -18,-2 -4,4 -3,0 -3,6 -8,3 -9,2 -14,-1 0,-7 -2,-8 5,-15"/>
   <path class="fil0 str0" d="M491 779l-6 -5c-3,-5 -9,-13 -11,-18m-22 1c0,-4 0,-3 -2,-6 0,-5 1,-2 -1,-5m-3 9c4,1 2,1 6,2 4,2 13,11 15,15 4,4 9,9 13,14 5,6 30,32 35,33 -1,-9 -24,-33 -24,-40 5,1 15,6 19,10 5,0 14,6 17,9 3,0 4,0 6,0 -4,-6 -53,-42 -59,-42l-4 -4c-3,-5 -6,-10 -9,-15m-17 9c1,4 1,4 2,9 -4,0 -8,-2 -12,-3l-21 -1c-5,0 -20,6 -27,0 -7,-5 -11,-12 -9,-20 0,-4 4,-12 7,-15l3 -4m65 25c-2,3 -1,4 -3,9l-5 0c-6,-5 -10,-4 -13,-4 -4,-1 -24,-12 -30,-19 0,-1 -5,-10 -9,-11l-5 0m32 -44c-2,2 -3,3 -6,3 -4,-1 -2,-1 -6,0 -5,13 0,18 9,25l27 28 9 13 9 0c0,-6 1,-2 -2,-5 -6,-16 2,-22 -4,-34 -3,-7 -19,-18 -24,-23l-8 -7 -4 0"/>
   <path class="fil0 str0" d="M1396 779l-5 -5c-4,-5 -10,-13 -11,-18m-22 1c-1,-4 -1,-3 -2,-6 0,-5 0,-2 -1,-5m-4 9c4,1 2,1 7,2 3,2 12,11 15,15 3,4 8,9 13,14 4,6 29,32 35,33 -2,-9 -25,-33 -25,-40 5,1 15,6 20,10 4,0 13,6 17,9 2,0 3,0 5,0 -4,-6 -53,-42 -58,-42l-4 -4c-4,-5 -7,-10 -9,-15m-17 9c0,4 0,4 1,9 -4,0 -8,-2 -12,-3l-20 -1c-6,0 -21,6 -28,0 -7,-5 -11,-12 -9,-20 0,-4 4,-12 7,-15l4 -4m64 25c-2,3 -1,4 -2,9l-5 0c-7,-5 -11,-4 -14,-4 -4,-1 -24,-12 -29,-19 -1,-1 -6,-10 -10,-11l-4 0m32 -44c-3,2 -4,3 -6,3 -5,-1 -3,-1 -7,0 -5,13 0,18 9,25l28 28 8 13 10 0c-1,-6 0,-2 -2,-5 -7,-16 1,-22 -4,-34 -4,-7 -20,-18 -25,-23l-7 -7 -4 0"/>
   <path class="fil0 str0" d="M3 801c7,-3 8,-2 13,-8 3,-3 4,-6 5,-9 1,-7 -6,-17 -13,-18l-5 0"/>
   <path class="fil0 str0" d="M3 39l93 0 5 -4c-4,-10 -12,-9 -20,-11 -4,-2 -2,-2 -6,-3 -1,2 -4,6 -6,6 -5,-1 -7,0 -9,-6 7,1 6,5 11,0 -3,-3 -4,-3 -8,-3 -4,-3 -5,-3 -9,-3 -5,-3 -15,-7 -21,-7 -4,1 -8,2 -12,4l-18 0"/>
   <path class="fil0 str0" d="M1593 5c-3,10 -6,11 -4,22 1,5 0,9 -2,15l-10 12c-6,3 -11,8 -16,12 -4,3 -5,4 -8,6 -8,-4 -7,-2 -13,-1 -3,-4 -5,-7 -4,-11 0,-4 1,-7 4,-9 6,-8 31,-31 36,-36 2,-4 4,-8 7,-12m10 -1l0 3c-4,-1 -2,0 -5,-2l-5 0 0 -1"/>
   <path class="fil0 str0" d="M1141 5c-3,6 -7,11 -5,19 1,13 -1,20 -13,30l-23 18c-10,-5 -4,-2 -13,-1 -8,-13 -1,-21 9,-29 11,-10 28,-24 34,-39m11 -1l0 3c-4,-1 -3,0 -6,-2l-5 0 0 -1"/>
   <path class="fil0 str0" d="M306 781c-1,4 0,3 -4,8l-8 -4c0,-6 -1,-5 3,-9m50 -74c-1,-2 -2,-3 -2,-6m-7 -1c-4,2 -2,1 -5,1m9 -16l-6 6 -3 7 0 3 -21 41c-5,8 -9,22 -13,30 -1,3 -2,6 -2,9 3,1 1,1 6,1 2,2 1,2 3,4 10,-6 38,-66 41,-79 4,-1 5,-3 6,-8 2,-4 1,-2 1,-8 -2,-3 -2,-3 -6,-6l-6 0m-3 14l-1 1m4 -10c-2,3 -2,6 -3,9 3,2 2,2 6,2 2,-2 3,-3 5,-7 -2,-2 -1,-1 -3,-4l-5 0"/>
   <path class="fil0 str0" d="M1212 781c-2,4 -1,3 -5,8l-8 -4c0,-6 -1,-5 3,-9m50 -74c-1,-2 -2,-3 -2,-6m-7 -1c-4,2 -2,1 -5,1m9 -16l-6 6 -3 7 0 3 -21 41c-5,8 -9,22 -13,30 -1,3 -2,6 -2,9 3,1 1,1 6,1 2,2 1,2 4,4 9,-6 37,-66 40,-79 4,-1 5,-3 6,-8 2,-4 2,-2 2,-8 -3,-3 -3,-3 -6,-6l-7 0m-2 14l-2 1m4 -10c-2,3 -2,6 -2,9 2,2 1,2 5,2 2,-2 3,-3 5,-7 -2,-2 -1,-1 -3,-4l-5 0"/>
   <path class="fil0 str0" d="M688 5c-3,10 -6,11 -4,22 1,5 0,9 -2,15l-10 12c-6,3 -11,8 -16,12 -4,3 -5,4 -8,6 -8,-4 -7,-2 -13,-1 -3,-4 -5,-7 -4,-11 0,-4 1,-7 4,-9 6,-8 31,-31 36,-36 2,-4 4,-8 7,-12m10 -1l0 3c-4,-1 -2,0 -5,-2l-5 0 0 -1"/>
   <path class="fil0 str0" d="M236 5c-3,6 -7,11 -5,19 1,13 -1,20 -13,30l-23 18c-10,-5 -4,-2 -13,-1 -8,-13 -1,-21 9,-29 11,-10 28,-24 34,-39m11 -1l0 3c-4,-1 -3,0 -6,-2l-5 0 0 -1"/>
   <path class="fil0 str0" d="M3 6c7,0 20,2 24,-3"/>
   <path class="fil0 str0" d="M1540 2c-1,9 -16,16 -22,10 -4,-3 -3,-6 -3,-10"/>
   <path class="fil0 str0" d="M1462 3c4,3 7,5 13,6 2,-2 5,-3 8,-3l4 -4"/>
   <path class="fil0 str0" d="M1420 2l1 9c2,3 2,4 3,9 2,3 2,4 3,9 2,4 1,1 2,7 -10,8 -10,0 -21,15 -17,0 -125,4 -130,-3l21 -31 14 -15"/>
   <path class="fil0 str0" d="M1261 2c-5,4 -10,6 -15,7 -5,-2 -8,-4 -12,-7"/>
   <path class="fil0 str0" d="M1088 2c-4,13 -19,17 -25,7 -2,-3 -1,-3 -1,-7"/>
   <path class="fil0 str0" d="M1035 2c-5,4 -8,5 -14,7 -3,-2 -7,-2 -9,-3l-4 -4"/>
   <path class="fil0 str0" d="M940 2c3,1 3,1 7,1 6,4 13,5 20,9 4,0 5,0 9,3 4,0 5,0 9,3 6,1 23,5 26,12l0 8c-4,3 -6,6 -11,7l-183 0c-4,-1 -7,-2 -9,-4 -3,-6 -2,-5 -2,-11 9,-12 19,-9 31,-15 4,-1 5,-1 9,-3 5,-1 6,-3 12,-3l18 -7"/>
   <path class="fil0 str0" d="M1098 554c-3,2 -4,1 -6,3m9 -6c-2,1 -2,2 -3,3 2,4 1,3 7,6 4,-2 4,-2 5,-6 -4,-3 -5,-3 -9,-3 -1,-3 -2,-6 -2,-9m-82 -29l4 -4c0,-3 0,-2 1,-5m-9 -4c-4,3 -3,1 -4,6 1,4 2,6 8,7 3,10 54,34 66,39 3,2 5,3 9,5 1,6 14,10 18,7 5,-3 5,-8 5,-12 -5,-4 -10,-9 -16,-10 -5,-1 -47,-27 -50,-29 -5,0 -3,0 -6,-3 -7,-1 -14,-6 -21,-6 -3,-3 -3,-3 -5,-4l-4 0"/>
   <path class="fil0 str0" d="M808 2l-4 4c-4,1 -6,2 -9,3 -4,-1 -6,-2 -9,-3l-4 -4"/>
   <path class="fil0 str0" d="M872 396c0,-2 0,-3 1,-6m-7 9c3,-3 0,-2 6,-3 2,2 4,3 7,5 4,-4 5,-4 3,-9 -4,-2 -5,-2 -9,-2 -2,-3 -2,-3 -2,-6m-87 -14c1,-3 1,-4 4,-6l0 -5m-10 -2c-2,1 -6,6 -2,10 2,2 5,3 8,3 6,9 67,26 82,29 1,5 8,5 14,6 3,-2 9,-5 9,-10 -1,-8 -11,-9 -11,-9 -5,-3 -2,-2 -7,-2 -5,-1 -23,-8 -27,-10 -5,-1 -22,-7 -28,-9 -10,-3 -19,-5 -28,-6 -4,-1 -3,-1 -5,-2l-5 0"/>
   <path class="fil0 str0" d="M635 2c-1,9 -16,16 -22,10 -4,-3 -3,-6 -3,-10"/>
   <path class="fil0 str0" d="M557 3c4,3 7,5 13,6 2,-2 5,-3 8,-3l4 -4"/>
   <path class="fil0 str0" d="M164 874c2,-9 8,-30 7,-38 -3,-15 -15,-22 -28,-19 -10,1 -34,11 -42,-7 -1,-3 -1,-4 -2,-6 4,-1 4,-2 8,-3m-8 -1l0 -1m9 -2c-3,0 0,-1 -3,1m-6 -3l0 -1m3 4l3 0 2 3c4,-1 7,-3 12,-3 3,-3 14,-6 19,-6l21 -8c3,-1 3,-1 6,-1l21 -8c5,-1 6,-1 9,-3 5,-1 6,-1 9,-3 5,-1 6,-1 9,-3 5,-1 6,-1 9,-3 4,-1 9,-3 12,-4m0 -2l0 2c4,-2 2,0 5,-3m-137 38l20 -5c3,-3 5,-3 10,-3 3,-3 5,-3 9,-3 4,-3 27,-9 32,-9 9,-6 44,-13 57,-17l4 0c3,-2 1,-1 5,-1 4,-1 6,-3 10,-3m-154 48l4 0c-1,6 -6,5 -12,3l0 -4c5,-4 5,-4 12,-4l0 3c2,-1 2,-1 3,-1 0,-3 0,-3 0,-4l-3 0c0,-11 3,-14 3,-20l3 -19c-2,-7 -3,-15 -7,-20 -4,-7 -11,-11 -18,-12 -13,-3 -17,1 -29,4"/>
   <path class="fil0 str0" d="M1069 874c2,-9 8,-30 7,-38 -3,-15 -15,-22 -28,-19 -10,1 -34,11 -42,-7 -1,-3 -1,-4 -1,-6 3,-1 3,-2 7,-3m-8 -1l0 -1m10 -2c-4,0 -1,-1 -3,1m-6 -3l0 -1m3 4l3 0 1 3c4,-1 7,-3 12,-3 3,-3 14,-6 19,-6l21 -8c3,-1 3,-1 7,-1l21 -8c4,-1 5,-1 9,-3 4,-1 5,-1 9,-3 4,-1 5,-1 9,-3 4,-1 5,-1 9,-3 3,-1 8,-3 12,-4m-1 -2l1 2c3,-2 1,0 4,-3m-137 38l20 -5c3,-3 5,-3 10,-3 3,-3 5,-3 10,-3 3,-3 26,-9 31,-9 9,-6 44,-13 57,-17l4 0c3,-2 1,-1 5,-1 4,-1 6,-3 11,-3m-155 48l4 0c-1,6 -6,5 -12,3l1 -4c4,-4 4,-4 11,-4l0 3c2,-1 2,-1 4,-1 -1,-3 -1,-3 -1,-4l-2 0c0,-11 2,-14 3,-20l2 -19c-2,-7 -3,-15 -7,-20 -4,-7 -11,-11 -18,-12 -13,-3 -17,1 -29,4"/>
   <path class="fil0 str0" d="M455 594c-4,2 -9,2 -14,2m11 -116l3 5 0 109c4,3 8,5 9,10 1,7 6,16 9,22 6,6 16,8 21,18 -6,9 -14,-5 -21,-9 -5,-2 -9,-4 -14,-12 -1,-5 0,-4 -4,-6 -5,4 -3,22 -3,30 -3,2 -1,1 -5,3 -7,-9 0,-24 -4,-33 -9,0 -2,6 -15,15 -3,3 -4,4 -9,6 -6,4 -8,13 -17,6 2,-9 20,-13 26,-27 1,-1 1,-3 1,-5 3,-3 3,-5 3,-10 2,-3 6,-6 9,-6 0,-4 1,-3 -1,-6l0 -98c2,-4 1,-3 1,-7l5 -5m6 -18l0 18 -6 0 0 -18m0 -183c0,-8 -3,-22 1,-28m5 28c9,1 3,-1 9,4 1,5 2,10 6,15l12 8c4,1 19,0 21,16 2,11 -4,10 -9,18 -6,7 -9,17 -11,26l-1 26c2,9 6,17 6,17 1,4 1,4 3,8 1,4 2,7 3,11l1 13c1,5 3,12 -6,15 -4,1 -7,2 -10,3l-24 3 -6 0 -26 -3c-6,-2 -10,-2 -16,-6 0,-13 1,-25 4,-37 5,-8 7,-16 9,-24l-1 -27c-3,-12 -2,-14 -9,-24l-11 -10c0,-5 0,-13 3,-16l5 -6c4,-3 31,-5 31,-26 4,-3 6,-4 11,-4l6 0c0,-8 3,-26 -5,-28"/>
   <path class="fil0 str0" d="M1361 594c-5,2 -10,2 -14,2m10 -116l4 5 0 109c3,3 7,5 8,10 1,7 6,16 10,22 5,6 15,8 21,18 -7,9 -15,-5 -21,-9 -6,-2 -10,-4 -14,-12 -2,-5 -1,-4 -5,-6 -5,4 -2,22 -2,30 -4,2 -2,1 -5,3 -8,-9 -1,-24 -4,-33 -10,0 -3,6 -15,15 -4,3 -5,4 -9,6 -7,4 -9,13 -17,6 1,-9 19,-13 26,-27 0,-1 0,-3 1,-5 2,-3 2,-5 3,-10 1,-3 5,-6 9,-6 -1,-4 0,-3 -1,-6l0 -98c1,-4 1,-3 1,-7l4 -5m6 -18l0 18 -6 0 0 -18m0 -183c0,-8 -3,-22 2,-28m4 28c9,1 3,-1 10,4 0,5 1,10 5,15l13 8c3,1 18,0 21,16 1,11 -5,10 -10,18 -6,7 -9,17 -10,26l-1 26c1,9 5,17 5,17 1,4 1,4 4,8 0,4 1,7 3,11l1 13c0,5 2,12 -6,15 -5,1 -8,2 -11,3l-24 3 -6 0 -25 -3c-7,-2 -11,-2 -16,-6 0,-13 0,-25 4,-37 4,-8 6,-16 9,-24l-1 -27c-4,-12 -3,-14 -10,-24l-10 -10c0,-5 -1,-13 2,-16l6 -6c3,-3 31,-5 31,-26 3,-3 5,-4 10,-4l6 0c0,-8 3,-26 -4,-28"/>
   <path class="fil0 str0" d="M515 2l0 9c3,3 3,4 3,9 3,3 3,4 3,9 3,4 2,1 3,7 -10,8 -10,0 -21,15 -17,0 -125,4 -131,-3l21 -31 14 -15"/>
   <path class="fil0 str0" d="M1599 342c-10,12 -27,3 -29,-8 -2,-5 0,-13 4,-16 4,-5 15,-7 22,-3 2,2 1,1 4,3"/>
   <path class="fil0 str0" d="M356 2c-5,4 -10,6 -15,7 -5,-2 -8,-4 -12,-7"/>
   <path class="fil0 str0" d="M3 348c9,-2 16,-7 18,-16 1,-8 -7,-19 -18,-19"/>
   <path class="fil0 str0" d="M734 617c-3,4 -4,5 -6,7 -6,-3 -7,-4 -3,-10m3 0c-3,1 0,0 -3,0m6 -2c-3,2 0,2 -3,2m5 -8c1,-1 2,-1 4,-3 17,-16 39,-26 56,-40m2 0l-2 0m4 -2l-2 2m4 -3l-2 1m4 -1l-2 0m4 -2l-2 2m4 -3l-2 1m8 9c-4,-2 -3,-1 -5,-6 0,-3 -1,-1 -1,-4 3,-1 1,1 5,-3m-69 64c-4,-1 -3,-1 -7,-1 -2,-3 -1,-1 -3,-5 2,-3 1,-1 2,-6 -7,-2 -21,10 -13,19 7,9 19,-2 21,-7 11,-3 52,-33 65,-43 3,-4 3,-3 5,-8 4,-1 3,0 8,-4 -1,-7 -3,-8 -9,-9"/>
   <path class="fil0 str0" d="M183 2c-4,13 -19,17 -25,7 -2,-3 -2,-3 -2,-7"/>
   <path class="fil0 str0" d="M1288 387c1,-5 -2,-13 -2,-17 -1,-13 -11,-32 -11,-43 -3,-4 -3,-5 -3,-9 -3,-4 -6,-12 -6,-16m-15 5c2,-4 2,-3 3,-7m23 89l0 4c1,3 1,3 4,6l4 0 5 -6c-1,-4 -1,-3 -2,-6l-7 0c-1,0 -4,1 -4,2 -5,-4 -11,-21 -11,-27 -6,-9 -9,-30 -12,-41 -1,-5 -2,-11 -3,-14 -4,-5 -4,-8 -5,-12 0,-6 0,-6 4,-10m4 -1c-3,1 -1,1 -4,1m10 14c-4,1 -2,1 -6,1 -4,-5 -3,-3 -3,-8 3,-3 1,-2 5,-3l4 1 0 9c4,3 0,2 6,3 1,-6 -2,-12 -4,-16 -4,-2 -5,-2 -8,-2"/>
   <path class="fil0 str0" d="M383 387c1,-5 -2,-13 -2,-17 -1,-13 -11,-32 -12,-43 -2,-4 -2,-5 -3,-9 -2,-4 -5,-12 -6,-16m-15 5c3,-4 3,-3 3,-7m24 89l0 4c1,3 1,3 3,6l5 0 4 -6c0,-4 0,-3 -1,-6l-8 0c0,0 -3,1 -3,2 -5,-4 -11,-21 -12,-27 -5,-9 -8,-30 -12,-41 0,-5 -1,-11 -3,-14 -3,-5 -3,-8 -4,-12 0,-6 0,-6 4,-10m3 -1c-2,1 0,1 -3,1m9 14c-3,1 -1,1 -6,1 -3,-5 -2,-3 -3,-8 4,-3 2,-2 6,-3l4 1 -1 9c5,3 1,2 6,3 2,-6 -1,-12 -3,-16 -4,-2 -5,-2 -9,-2"/>
   <path class="fil0 str0" d="M57 274c-1,3 0,2 -3,6 2,2 1,1 3,4l5 -4c0,-5 0,-3 -2,-6l6 -7c-2,-4 -1,-2 -3,-3 -3,1 -4,2 -6,4 2,5 4,4 0,6 -1,-1 -1,-1 -3,-2m-1 -6c3,3 3,1 1,6 -2,1 -3,2 -6,4l-2 -4c2,-3 3,-4 5,-6m-3 -3c-5,3 -5,4 -9,3 0,-6 0,-4 5,-7m0 -2l-5 -2m0 -2l-3 -3m12 11l0 2c2,1 1,0 3,3l2 0c2,-3 3,-5 4,-7 -1,-4 0,-2 -3,-3 -2,1 -4,3 -6,5 -4,-4 -1,-2 -4,-2l0 -2c3,-3 3,-3 6,-6 -2,-4 -1,-2 -3,-3 -3,1 -5,3 -8,5l0 2c-2,1 -3,2 -6,5 -2,-3 -1,-2 -3,-4 2,-3 3,-4 5,-6m-2 -5l0 -1m-4 2c-2,4 -4,5 -8,8 -2,-3 -2,-3 -4,-5 -4,-4 -8,-7 -14,-8m0 -8l3 -3m33 9c-4,2 -4,3 -6,5 -2,-4 -1,-2 -1,-6 -6,-6 -13,-11 -16,-17m-13 -12c2,2 2,2 4,5 4,2 3,1 5,5l4 2c2,-3 3,-4 5,-6 -3,-2 -5,-2 -8,-2 -2,-4 -4,-5 -6,-9m-4 21c4,3 2,1 3,5 7,2 12,9 18,15 2,0 1,0 5,1l4 0c0,0 1,3 2,4l1 0c5,-6 7,-6 3,-11 2,-8 -2,-4 -9,-13 -5,-8 -4,-18 -9,-21 -5,-2 -8,-1 -14,-1 -2,-2 -1,-1 -4,-3 1,-6 2,-4 0,-8"/>
   <path class="fil0 str0" d="M3 45l92 0c5,-1 7,-4 10,-7 0,-6 1,-9 -3,-12 -5,-4 -17,-7 -22,-8 -4,-3 -5,-3 -9,-3 -4,-3 -5,-3 -9,-3 -7,-4 -14,-5 -20,-9 -4,0 -4,0 -7,-1"/>
   <path class="fil0 str0" d="M1508 2l2 13 10 15c15,-7 6,-14 32,-27 2,-1 3,-2 7,-3"/>
   <path class="fil0 str0" d="M1599 297l-127 0c-2,-2 -3,-2 -4,-3l0 -5c3,-4 3,-4 8,-4 3,-3 11,-5 16,-5 4,4 10,8 16,0 -8,-3 -7,5 -11,-2 3,-3 1,-2 6,-2 3,-3 4,-3 9,-3 3,-3 4,-3 9,-3 3,-3 4,-3 9,-3 4,-4 0,-1 4,-2l12 4 37 0c4,-2 12,-5 16,-3"/>
   <path class="fil0 str0" d="M21 635l-3 2 -5 -2c1,-6 0,-4 5,-5 3,3 2,2 3,5l3 0"/>
   <path class="fil0 str0" d="M927 635l-4 2 -5 -2c1,-6 0,-4 6,-5 2,3 1,2 3,5l2 0"/>
   <path class="fil0 str0" d="M825 844c-1,-5 -3,-10 -4,-14l0 -4m-1 -6c1,3 1,1 1,6 -5,-3 -3,-1 -3,-6m-35 -122c-2,3 -2,7 0,10 2,4 2,6 3,11 2,3 14,46 15,51 2,4 5,14 6,20 2,3 2,5 3,10 2,4 2,7 5,12 0,4 0,5 3,8l2 0c-2,-5 -5,-18 -5,-22 -3,-4 -3,-7 -3,-11 -3,-4 -3,-7 -3,-11 -3,-4 -3,-7 -3,-11 -3,-4 -3,-7 -3,-11 -3,-4 -3,-7 -3,-11 -3,-5 -6,-17 -8,-23 -2,-7 -2,-21 -9,-22 0,-4 0,-3 -1,-7 -5,2 -19,6 -23,6 -4,3 -5,3 -9,3 -5,2 -15,9 -17,13 -3,4 -2,14 0,19 3,6 22,23 20,36 -2,8 -8,14 -15,18 -3,1 -3,1 -5,3l-29 6m78 -108c1,-3 0,-1 1,-5 -3,-2 -2,-1 -4,-3 -3,3 -2,1 -2,6 3,4 2,2 4,5 15,-4 27,-21 25,-34 -2,-6 -10,-21 -18,-27"/>
   <path class="fil0 str0" d="M717 867c4,-1 3,-1 7,-3 4,-1 19,-10 23,-12 3,-1 0,0 4,-2m2 -1l-2 1m4 -2l-2 1m4 -2l-2 1m-54 43c7,-4 35,-25 46,-33 13,-10 14,-10 10,-11m-77 42l14 -15c3,-6 9,-11 15,-16 4,-7 26,-33 34,-30 -5,7 -25,33 -26,39l-4 4c-4,5 -12,13 -12,20 -3,2 -5,3 -6,7m-23 -7l-1 8c3,1 0,0 5,1 2,-7 -2,-1 4,-11 -5,0 -4,1 -8,2 -4,0 -12,2 -15,4l-5 0c-3,0 -2,0 -4,1 -5,-1 -25,-5 -28,-4 -8,1 -7,1 -12,5"/>
   <path class="fil0 str0" d="M248 891c7,-2 47,-34 55,-40m3 -4l-3 2m-39 18c12,-3 27,-16 39,-18l0 2c4,-3 2,-1 3,-4m-79 42l19 -21c6,-9 21,-22 29,-29 2,-4 4,-6 7,-9 6,-4 3,-4 8,-2 -6,11 -25,31 -26,39l-6 6c-3,4 -9,12 -10,18l-5 4c-1,1 -1,2 -3,4m-21 -8c0,5 -2,3 0,9l5 0c1,-5 0,-3 3,-11 -3,0 -5,1 -8,2 -7,0 -6,2 -15,4l-18 0c-14,-3 -20,-8 -33,4"/>
   <path class="fil0 str0" d="M1153 891c7,-2 47,-34 56,-40m2 -4l-3 2m-38 18c11,-3 26,-16 38,-18l1 2c3,-3 1,-1 2,-4m-79 42l20 -21c5,-9 20,-22 28,-29 2,-4 4,-6 8,-9 5,-4 2,-4 7,-2 -6,11 -25,31 -25,39l-6 6c-4,4 -10,12 -11,18l-4 4c-2,1 -2,2 -3,4m-21 -8c-1,5 -3,3 0,9l4 0c1,-5 0,-3 3,-11 -3,0 -5,1 -7,2 -8,0 -7,2 -16,4l-18 0c-14,-3 -20,-8 -32,4"/>
   <path class="fil0 str0" d="M26 899c-8,-5 -16,-6 -22,-9l0 -5c4,-3 11,-6 12,-10 2,-5 1,-13 -3,-16 -3,-4 -5,-4 -9,-4"/>
   <path class="fil0 str0" d="M3 878c11,-2 11,-16 0,-18"/>
   <path class="fil0 str0" d="M503 881c0,-6 1,-4 -2,-8m-7 -4c2,4 1,1 3,4 2,0 2,0 4,0 0,-3 -1,-5 -1,-7l0 -7c1,-4 1,-5 1,-8m-3 -2c2,1 2,1 3,2 6,-9 17,-14 26,-9 5,2 8,5 9,10l0 13c-1,11 -12,25 -20,34m-25 -25c1,4 1,3 4,7l8 0c6,6 5,11 9,18m9 0c12,-14 25,-32 19,-50 -2,-6 -9,-12 -15,-12 -12,-2 -20,2 -27,12 -3,2 -2,2 -4,7l0 13c-4,1 -3,0 -3,5 -7,0 -23,3 -27,5 -4,1 -22,8 -26,9 -3,2 -16,9 -21,11"/>
   <path class="fil0 str0" d="M1409 881c0,-6 0,-4 -2,-8m-7 -4c1,4 0,1 3,4 1,0 1,0 4,0 -1,-3 -2,-5 -2,-7l0 -7c1,-4 1,-5 2,-8m-3 -2c1,1 1,1 3,2 5,-9 16,-14 26,-9 4,2 7,5 8,10l1 13c-2,11 -13,25 -20,34m-26 -25c1,4 1,3 5,7l8 0c5,6 4,11 8,18m10 0c11,-14 24,-32 18,-50 -2,-6 -9,-12 -14,-12 -13,-2 -21,2 -27,12 -4,2 -3,2 -4,7l0 13c-5,1 -4,0 -4,5 -7,0 -23,3 -27,5 -4,1 -22,8 -25,9 -4,2 -17,9 -21,11"/>
   <path class="fil0 str0" d="M1056 2c0,8 -1,9 3,16 1,4 6,9 9,12 12,-7 9,-11 17,-18 7,-4 13,-10 22,-12"/>
   <path class="fil0 str0" d="M932 3c-4,5 -18,3 -25,3 -7,0 -25,2 -22,-6"/>
   <path class="fil0 str0" d="M603 2l2 13 10 15c15,-7 6,-14 32,-27 2,-1 3,-2 7,-3"/>
   <path class="fil0 str0" d="M902 471c3,-1 7,-1 11,-3 4,0 6,0 9,-3m13 -27c-4,1 -2,0 -6,0 -6,1 -47,13 -41,30 2,6 9,4 14,3 0,-4 -1,-2 1,-6 4,-1 8,0 13,0 4,-2 3,-3 6,0 4,2 2,2 7,0l5 0c4,-1 10,-2 15,-3 5,-6 0,-5 0,-13 -3,-4 -4,-7 -6,-11 -4,0 -5,0 -8,0"/>
   <path class="fil0 str0" d="M1577 891l-1 8c3,1 0,0 5,1 2,-7 -2,-1 4,-11m-72 8c5,-4 4,-4 12,-5 4,-1 14,2 19,3l18 0c3,-2 11,-4 15,-4 4,-1 3,-2 8,-2l6 -6c2,-4 5,-7 8,-10"/>
   <path class="fil0 str0" d="M3 470c3,-1 2,-1 4,-2 5,0 7,0 9,-3m-13 0l7 0c5,-2 4,-3 6,0 5,2 3,2 8,0l5 0c4,-1 10,-2 15,-3 5,-6 0,-5 0,-13 -3,-4 -4,-7 -6,-11 -6,0 -8,-1 -14,0 -5,2 -16,6 -21,6"/>
   <path class="fil0 str0" d="M1593 456c-2,8 -7,11 -4,23 1,7 0,12 -6,21 -6,6 -15,12 -20,16 -4,4 -3,4 -10,9 -6,-2 -6,-4 -12,-1 -3,-3 -5,-5 -5,-11 0,-7 9,-17 14,-21 4,-3 28,-25 30,-32 1,-3 1,-1 2,-4m-1 -9c1,4 2,6 1,9l11 0c1,-4 4,-8 7,-12m-23 -6c2,0 4,-1 7,-3m-8 12c-9,6 -8,2 -14,5 -4,1 -4,2 -8,3l-13 7c-16,13 -6,12 -20,20 -10,-5 -14,-23 -13,-27 1,-7 8,-14 12,-15l46 1c3,0 2,-3 11,-3l0 5c-1,2 -1,1 -1,4l5 0c1,-3 1,-1 1,-4 2,-5 2,-3 2,-8 4,-1 4,-2 7,-6 3,-3 4,-5 8,-9"/>
   <path class="fil0 str0" d="M1141 456c-2,6 -7,10 -5,21 1,8 1,14 -6,24l-29 24c-4,-1 -2,-1 -5,-3 -4,0 -7,1 -9,0 -4,-5 -4,-13 -1,-18 2,-3 36,-34 39,-37l5 -11m-1 -9c0,-4 0,-5 3,-9m-8 9l5 0c1,5 1,5 1,9l11 0c0,-5 5,-10 8,-15 1,-1 2,-1 4,-3 0,0 0,-1 1,-3m57 -39c0,-3 1,-2 -1,-1m-85 43c-1,3 -1,2 -1,5l0 4c-9,5 -10,3 -15,5 -5,1 -19,9 -23,13 -8,6 -8,14 -18,17 -11,-7 -14,-26 -12,-32 0,0 7,-9 12,-10l14 0c3,0 13,4 24,3 3,-2 2,-2 7,-2 4,0 3,-3 12,-3 5,-2 2,-2 7,0 -1,-3 12,-15 16,-18 12,-15 29,-32 44,-46m-22 40c13,-5 26,-14 40,-19l1 1c-4,4 -22,17 -28,22 -6,4 -24,19 -29,17 2,-5 7,-11 11,-16 2,-3 2,-3 5,-5 0,-6 8,-16 13,-21 2,-6 15,-17 9,-19"/>
   <path class="fil0 str0" d="M3 515c12,0 45,4 50,-5 -8,-6 -39,-3 -50,-3"/>
   <path class="fil0 str0" d="M688 456c-2,8 -7,11 -4,23 1,7 0,12 -6,21 -6,6 -15,12 -20,16 -4,4 -3,4 -10,9 -6,-2 -6,-4 -12,-1 -3,-3 -5,-5 -5,-11 0,-7 9,-17 14,-21 4,-3 28,-25 30,-32 1,-3 1,-1 2,-4m-1 -9c1,4 2,6 1,9l11 0c1,-5 5,-10 9,-15l4 -3m-28 0l-1 0m4 -1l-2 1m29 -1l-2 1 1 -3m-23 0c-3,2 0,2 -3,2m-5 10c-9,6 -8,2 -14,5 -4,1 -4,2 -8,3l-13 7c-16,13 -6,12 -20,20 -10,-5 -14,-23 -13,-27 1,-7 8,-14 12,-15l46 1c3,0 2,-3 11,-3l0 5c-1,2 -1,1 -1,4l5 0c1,-3 1,-1 1,-4 2,-5 2,-3 2,-8 5,-1 6,-5 12,-12l49 -49m-23 40c-2,2 -3,2 -4,3 -4,7 -10,12 -11,18l1 2c6,-3 53,-37 57,-42 -11,-1 -31,17 -43,19 0,-6 9,-15 13,-21 2,-3 5,-7 7,-10 4,-6 7,-8 3,-9"/>
   <path class="fil0 str0" d="M129 2c-4,4 -7,5 -13,7 -3,-2 -7,-2 -9,-3l-5 -4"/>
   <path class="fil0 str0" d="M236 456c-2,6 -7,10 -5,21 1,8 1,14 -6,24l-30 24c-3,-1 -1,-1 -4,-3 -4,0 -7,1 -9,0 -4,-5 -4,-13 -2,-18 3,-3 37,-34 39,-37l6 -11m-1 -9c0,-4 0,-5 3,-9m-8 9l5 0c1,5 1,5 1,9l11 0c0,-5 5,-10 7,-15 2,-1 3,-1 5,-3 0,0 0,-1 1,-3m57 -39c0,-3 1,-2 -1,-1m-86 43c0,3 0,2 0,5l0 4c-9,5 -10,3 -15,5 -5,1 -20,9 -24,13 -7,6 -7,14 -18,17 -10,-7 -13,-26 -12,-32 1,0 8,-9 13,-10l14 0c3,0 13,4 24,3 3,-2 2,-2 6,-2 5,0 4,-3 12,-3 6,-2 3,-2 8,0 -1,-3 12,-15 16,-18 12,-15 29,-32 44,-46m-23 40c14,-5 27,-14 41,-19l1 1c-4,4 -22,17 -28,22 -6,4 -24,19 -29,17 2,-5 7,-11 11,-16 2,-3 2,-3 4,-5 1,-6 9,-16 14,-21 2,-6 15,-17 9,-19"/>
   <path class="fil0 str0" d="M963 263c-2,3 -1,2 -3,6 1,2 0,1 3,4l4 -4c0,-5 0,-3 -1,-6l5 -7c-2,-4 -1,-2 -3,-3 -3,1 -4,2 -6,4 2,5 4,4 1,6 -2,-1 -2,-1 -3,-2m-2 -6c3,3 3,1 2,6 -3,1 -4,2 -6,4l-3 -4c2,-3 3,-4 5,-6m-3 -3c-5,3 -5,4 -9,3 0,-6 0,-4 5,-7m0 -2l-4 -2m0 -2l-3 -3m11 11l0 2c2,1 1,0 3,3l2 0c2,-3 3,-5 5,-7 -2,-4 -1,-2 -3,-3 -3,1 -5,3 -7,5 -4,-4 -1,-2 -4,-2l0 -2c3,-3 3,-3 6,-6 -2,-4 -1,-2 -3,-3 -3,1 -5,3 -7,5l0 2c-3,1 -4,2 -6,5 -3,-3 -2,-2 -3,-4 1,-3 2,-4 4,-6m-2 -5l0 -1m-4 2c-2,4 -4,5 -7,8 -4,-5 -10,-11 -16,-13 -1,-1 -20,-1 -13,-18m46 16c-4,2 -4,3 -6,5 -2,-4 -1,-2 -1,-6 -6,-6 -13,-11 -15,-17m-31 -3c-5,1 -4,2 -4,-4m13 -1c1,-4 2,-4 5,-6m-25 2c-1,4 0,3 -3,6 -6,-4 -3,-4 0,-9m35 24c6,2 11,9 17,15 2,0 1,0 5,1l4 0c0,0 1,3 2,4l2 0c4,-6 6,-6 2,-11 2,-8 -2,-4 -8,-13 -6,-8 -5,-18 -10,-21 -5,-2 -8,-1 -13,-1m-4 -7c1,-5 2,-6 -3,-3m-7 -9l0 -1m7 3c-5,0 -2,0 -6,0 0,5 1,5 6,7 1,5 -2,2 3,3 0,5 -1,4 4,7 1,4 3,5 6,9 2,0 4,0 7,2 -2,2 -3,3 -4,6l-5 -2c-2,-4 -1,-3 -4,-5 -4,-4 -5,-5 -8,-7 -3,-5 -5,-7 -11,-4 0,5 -1,8 6,10 0,2 0,1 1,4 3,3 9,7 11,13 -3,2 -2,1 -4,3 -1,-1 -2,-4 -2,-4 -3,-3 -5,-5 -8,-6 -3,-4 -3,-4 -7,-5 -2,-5 0,-3 -4,-4 -3,-5 -3,-5 -7,-5 -2,-3 -1,-2 -3,-3 -2,-4 -5,-6 -8,-10 -8,-6 -22,-14 -20,-26 1,-10 14,-17 24,-12l19 21c2,5 1,5 7,5 4,-3 1,-3 7,-3"/>
   <path class="fil0 str0" d="M1599 302l-127 0c-11,-2 -14,-13 -6,-19 4,-4 22,-8 29,-10 3,-3 4,-3 9,-3l20 -8c3,-1 4,-1 8,-2 6,-6 11,-9 17,-13 4,-1 8,-3 12,-4 0,-16 4,-12 8,-13 3,-4 3,-4 5,-8 0,-4 -6,-13 -12,-10 -3,1 -4,2 -6,5 -1,4 0,3 -3,6 -6,-4 -3,-3 -2,-9 1,-4 6,-7 10,-7 17,-3 22,16 14,25 -3,2 -6,2 -8,4l0 7c4,1 8,3 13,4 5,2 13,10 19,14"/>
   <path class="fil0 str0" d="M1040 275l0 -22m0 -131c-7,7 -3,46 -3,57 4,14 -5,67 3,74 4,-11 1,-41 2,-44 2,-9 1,-70 1,-84 -2,-1 -2,-2 -3,-3l0 -8c-5,0 -5,0 -8,2 -7,0 -32,-3 -42,3 -7,5 -10,13 -8,21 1,10 21,36 1,50 -7,4 -24,6 -31,5l-15 -2m103 -80c-4,-5 -6,-7 0,-11 5,4 3,7 0,11 6,3 29,-7 32,-24 1,-12 -3,-23 -9,-32"/>
   <path class="fil0 str0" d="M135 275l0 -22m0 -131c-7,7 -3,46 -3,57 4,14 -5,67 3,74 4,-11 1,-41 2,-44 2,-9 1,-70 1,-84 -2,-1 -2,-2 -3,-3l0 -8c-5,0 -5,0 -9,2 -6,0 -31,-3 -42,3 -6,5 -9,13 -7,21 1,10 21,36 1,50 -7,4 -24,6 -31,5l-15 -2m103 -80c-4,-5 -6,-7 0,-11 5,4 3,7 0,11 6,3 29,-7 32,-24 1,-12 -3,-23 -9,-32"/>
   <path class="fil0 str0" d="M18 647l-3 2 -5 -2c1,-7 7,-5 8,0l3 0"/>
   <path class="fil0 str0" d="M924 647l-4 2 -5 -2c1,-7 7,-5 9,0l3 0"/>
   <path class="fil0 str0" d="M1599 678l-36 7c-4,1 -12,2 -15,3l-63 12c-5,1 -40,9 -43,7 -8,-1 -12,-12 -2,-20 18,-11 38,-21 58,-33 1,-1 5,-8 10,-12 4,-3 11,-6 15,-10 -2,-5 -2,-6 0,-12 3,-1 10,-4 8,-12 -2,-2 -3,-3 -5,-6 -4,0 -2,0 -4,0 -3,1 -5,1 -7,3 -5,7 0,6 -5,10 -2,-2 -6,-5 -1,-12 8,-12 28,-7 28,8 0,7 -4,10 -9,13 -1,4 -1,4 1,8 2,0 16,2 20,3 3,2 9,8 15,9l13 0c2,1 4,2 7,3l15 0"/>
   <path class="fil0 str0" d="M15 900c-2,-2 -5,-2 -8,-3l-4 0"/>
   <path class="fil0 str0" d="M134 899c0,-7 -2,-14 -8,-18 -7,-5 -18,-3 -24,3 -3,4 -2,8 -3,9 -1,4 -1,1 0,5"/>
   <path class="fil0 str0" d="M587 898c-1,-8 -3,-12 -8,-16 -2,-2 -3,-2 -4,-3 -1,-1 -12,-2 -16,2 -8,5 -7,9 -7,17"/>
   <path class="fil0 str0" d="M1039 899c0,-7 -2,-14 -8,-18 -6,-4 -18,-3 -22,2 -5,4 -4,9 -4,10 -2,4 -2,1 0,5"/>
   <path class="fil0 str0" d="M1492 898c-1,-8 -3,-12 -8,-16 -2,-2 -3,-2 -4,-3 -1,-1 -12,-2 -16,2 -8,5 -7,9 -7,17"/>
   <path class="fil0 str0" d="M180 899c-4,-3 -2,-2 -6,-3l-4 0c-4,1 -4,1 -8,3"/>
   <path class="fil0 str0" d="M360 899c0,-8 -2,-14 -9,-18 -4,-4 -14,-4 -18,0 -9,6 -7,10 -7,18"/>
   <path class="fil0 str0" d="M452 900c10,-5 16,-6 25,-9l12 0c4,3 4,3 5,8"/>
   <path class="fil0 str0" d="M633 899l-6 -3 -4 0c-4,1 -5,1 -8,3"/>
   <path class="fil0 str0" d="M812 899c3,-10 -8,-19 -11,-20l-12 0c-5,1 -11,8 -11,14l0 6"/>
   <path class="fil0 str0" d="M931 899c-8,-5 -16,-6 -21,-9l0 -5c3,-3 10,-6 12,-10 1,-5 0,-13 -3,-16 -3,-2 -3,-2 -5,-4l-12 0c-5,1 -12,10 -6,16 5,-5 1,-9 9,-11 8,-3 13,6 12,12 -2,2 -3,3 -5,6l-4 0c-4,5 -3,0 -3,12 -5,3 -7,3 -11,4l-9 5"/>
   <path class="fil0 str0" d="M1085 899c-4,-3 -2,-2 -6,-3l-4 0c-4,1 -4,1 -7,3"/>
   <path class="fil0 str0" d="M1265 899c0,-8 -2,-14 -8,-18 -5,-4 -15,-4 -19,0 -9,6 -7,10 -7,18"/>
   <path class="fil0 str0" d="M1357 900c10,-5 16,-6 26,-9l12 0c3,3 3,3 5,8"/>
   <path class="fil0 str0" d="M1538 899l-6 -3 -4 0c-4,1 -5,1 -8,3"/>
   <path class="fil0 str0" d="M921 900c-3,-2 -6,-2 -8,-3l-10 0c-3,1 -6,2 -8,3"/>
  </g>
 </g>
</svg>
