<?xml version="1.0" standalone="no"?><svg xmlns="http://www.w3.org/2000/svg" viewBox="0 0 1440 320"><path fill="#161010 " fill-opacity="1" d="M0,320L30,277.3C60,235,120,149,180,144C240,139,300,213,360,213.3C420,213,480,139,540,128C600,117,660,171,720,165.3C780,160,840,96,900,90.7C960,85,1020,139,1080,170.7C1140,203,1200,213,1260,208C1320,203,1380,181,1410,170.7L1440,160L1440,320L1410,320C1380,320,1320,320,1260,320C1200,320,1140,320,1080,320C1020,320,960,320,900,320C840,320,780,320,720,320C660,320,600,320,540,320C480,320,420,320,360,320C300,320,240,320,180,320C120,320,60,320,30,320L0,320Z"></path></svg>